<svg width="179" height="51" viewBox="0 0 179 51" fill="none" xmlns="http://www.w3.org/2000/svg">
<path d="M0 21.6393C0 19.7235 0.366054 17.8824 1.09936 16.1172C1.83147 14.3519 2.87424 12.7926 4.22768 11.4403C5.57991 10.0881 7.13925 9.04534 8.90449 8.31323C10.6697 7.57992 12.5108 7.21387 14.4266 7.21387C16.3424 7.21387 18.1835 7.57992 19.9487 8.31323C21.714 9.04534 23.2733 10.0881 24.6267 11.4403C25.979 12.7926 27.0217 14.3519 27.7538 16.1172C28.4859 17.8836 28.8532 19.7235 28.8532 21.6393C28.8532 23.555 28.4871 25.3961 27.7538 27.1614C27.0217 28.9278 25.979 30.486 24.6267 31.8382C23.2745 33.1904 21.7152 34.2332 19.9487 34.9665C18.1835 35.6986 16.3424 36.0659 14.4266 36.0659C12.5108 36.0659 10.6697 35.6998 8.90449 34.9665C8.32169 34.7221 7.75817 34.4403 7.2139 34.1212V43.2786H0.00120392V21.6393H0ZM14.4266 28.8532C16.417 28.8532 18.1172 28.1488 19.5261 26.7399C20.9349 25.3311 21.6393 23.6309 21.6393 21.6405C21.6393 19.6501 20.9349 17.9498 19.5261 16.541C18.1172 15.1322 16.417 14.4278 14.4266 14.4278C12.435 14.4278 10.736 15.1322 9.32714 16.541C7.91831 17.9498 7.2139 19.6501 7.2139 21.6405C7.2139 23.6321 7.91831 25.3311 9.32714 26.7399C10.736 28.1488 12.435 28.8532 14.4266 28.8532Z" fill="#0B4F9E"/>
<path d="M39.1653 36.0659H31.9526V0H39.1653V9.15736C39.7096 8.83826 40.2731 8.5565 40.8559 8.31206C42.6212 7.57875 44.4623 7.2127 46.378 7.2127C48.2938 7.2127 50.1349 7.57875 51.9001 8.31206C53.6654 9.04417 55.2247 10.0869 56.5782 11.4392C57.9304 12.7914 58.9732 14.3507 59.7053 16.116C60.4374 17.8824 60.8046 19.7223 60.8046 21.6381V36.0647H53.5907V21.6393C53.5907 19.6489 52.8863 17.9487 51.4775 16.5398C50.0687 15.131 48.3684 14.4266 46.378 14.4266C44.3864 14.4266 42.6874 15.131 41.2786 16.5398C39.8697 17.9487 39.1653 19.6489 39.1653 21.6393V36.0659Z" fill="#0B4F9E"/>
<path d="M63.8765 21.6393V7.21271H71.0892V21.6393C71.0892 23.6309 71.7936 25.3299 73.2024 26.7388C74.6112 28.1476 76.3114 28.852 78.3019 28.852C80.2923 28.852 81.9925 28.1476 83.4013 26.7388C84.8101 25.3299 85.5146 23.6297 85.5146 21.6393V7.21271H92.7285V36.0659C92.7285 37.9817 92.3624 39.8228 91.6291 41.588C90.897 43.3533 89.8542 44.9126 88.502 46.2648C87.1498 47.6171 85.5904 48.6598 83.824 49.3919C82.0587 50.1252 80.2176 50.4913 78.3019 50.4913V43.2774C80.2923 43.2774 81.9925 42.573 83.4013 41.1642C84.8101 39.7553 85.5146 38.0551 85.5146 36.0647V34.12C84.9691 34.4391 84.4056 34.7221 83.824 34.9653C82.0587 35.6974 80.2176 36.0647 78.3019 36.0647C76.3861 36.0647 74.545 35.6986 72.7798 34.9653C71.0133 34.232 69.4552 33.1905 68.1029 31.837C66.7507 30.4848 65.7079 28.9255 64.9746 27.1602C64.2437 25.3962 63.8765 23.5551 63.8765 21.6393Z" fill="#0B4F9E"/>
<path d="M148.266 16.4555C146.932 15.1033 145.354 14.4266 143.533 14.4266C141.541 14.4266 139.842 15.131 138.433 16.5398C137.024 17.9486 136.32 19.6488 136.32 21.6393C136.32 23.6309 137.024 25.3299 138.433 26.7387C139.842 28.1475 141.542 28.852 143.533 28.852C145.523 28.852 147.223 28.1475 148.632 26.7387C149.064 26.3064 149.43 25.8465 149.731 25.3576L155.903 29.0482C155.3 30.0621 154.578 30.9929 153.733 31.8382C152.38 33.1904 150.821 34.2332 149.055 34.9665C147.289 35.6986 145.448 36.0659 143.533 36.0659C141.617 36.0659 139.776 35.6998 138.01 34.9665C136.244 34.2332 134.686 33.1916 133.334 31.8382C131.981 30.486 130.939 28.9266 130.205 27.1614C129.473 25.3961 129.106 23.555 129.106 21.6393C129.106 19.7235 129.472 17.8824 130.205 16.1172C130.937 14.3519 131.98 12.7926 133.334 11.4403C134.686 10.0881 136.245 9.04534 138.01 8.31323C139.776 7.57992 141.617 7.21387 143.533 7.21387C145.448 7.21387 147.289 7.57992 149.055 8.31323C150.82 9.04534 152.379 10.0881 153.733 11.4403C155.085 12.7926 156.128 14.3519 156.86 16.1172C157.517 17.7138 157.883 19.3671 157.959 21.0769L141.785 26.0078L139.87 19.048L148.266 16.4555Z" fill="#0B4F9E"/>
<path d="M167.962 21.6393V36.0659H160.749V21.6393C160.749 19.7235 161.115 17.8824 161.848 16.1172C162.58 14.3519 163.623 12.7926 164.977 11.4403C166.329 10.0881 167.888 9.04534 169.654 8.31323C171.419 7.57992 173.26 7.21387 175.176 7.21387V14.4278C173.184 14.4278 171.485 15.1322 170.076 16.541C168.666 17.9486 167.962 19.6488 167.962 21.6393Z" fill="#0B4F9E"/>
<path d="M174.826 36.0093C176.624 36.0093 178.082 34.5515 178.082 32.7533C178.082 30.9551 176.624 29.4974 174.826 29.4974C173.028 29.4974 171.57 30.9551 171.57 32.7533C171.57 34.5515 173.028 36.0093 174.826 36.0093Z" fill="#0B4F9E"/>
<path d="M125.555 16.1172C124.823 14.3519 123.78 12.7926 122.428 11.4404C121.076 10.0881 119.517 9.04537 117.75 8.31326C115.985 7.57995 114.144 7.2139 112.228 7.2139C110.312 7.2139 108.471 7.57995 106.706 8.31326C106.123 8.5577 105.56 8.83947 105.015 9.15856V0H97.8027V21.6393C97.8027 23.5551 98.1688 25.3962 98.9021 27.1614C99.6342 28.9266 100.677 30.486 102.03 31.8382C103.383 33.1904 104.942 34.2332 106.707 34.9665C108.472 35.6986 110.314 36.0659 112.229 36.0659C114.145 36.0659 115.986 35.6998 117.751 34.9665C119.517 34.2332 121.076 33.1917 122.429 31.8382C123.782 30.486 124.824 28.9266 125.557 27.1614C126.289 25.3962 126.656 23.5551 126.656 21.6393C126.655 19.7235 126.289 17.8824 125.555 16.1172ZM120.097 24.3534H114.253V29.9309H109.606V24.3534H103.762V19.1745H109.606V13.597H114.253V19.1745H120.097V24.3534Z" fill="#0B4F9E"/>
</svg>
