<svg width="1920" height="675" viewBox="0 0 1920 675" fill="none" xmlns="http://www.w3.org/2000/svg">
<g opacity="0.08">
<path d="M-13.3165 35.0768C19.0898 17.3159 56.762 23.3012 87.1786 40.957C119.647 59.7972 141.527 91.0766 158.236 124.725C189.467 187.618 205.801 263.349 260.459 310.332C314.941 357.163 388.064 346.837 449.822 318.096C517.378 286.658 572.77 232.914 640.597 201.989C675.674 185.998 713.249 177.849 751.204 181.935C789.91 186.106 826.311 201.777 859.231 222.069C923.357 261.603 973.745 318.581 1030.06 368.16C1080.81 412.836 1138.69 453.261 1207.05 461.735C1282.51 471.09 1356.4 441.46 1430.55 430.496C1470.36 424.611 1510.09 425.136 1548.56 436.629C1585.88 447.778 1620.24 467.021 1652.59 488.612C1686.17 511.034 1718.14 535.957 1750.46 560.214C1785.7 586.657 1820.93 613.096 1856.17 639.54C1873.78 652.759 1891.4 665.983 1909.02 679.202C1910.78 680.525 1912.61 677.512 1910.86 676.203C1840.17 623.159 1769.75 569.714 1698.76 517.096C1638.83 472.677 1573.3 428.79 1496.89 423.598C1418.95 418.3 1343.98 450.591 1266.99 458.361C1229.4 462.156 1192.09 458.827 1156.72 445.848C1122 433.106 1090.53 412.81 1061.48 389.911C1003.33 344.078 954.593 286.996 895.338 242.547C838.334 199.785 769.62 167.309 696.596 180.33C624.357 193.209 565.054 243.522 504.552 283.244C442.225 324.164 357.331 362.29 286.925 324.394C220.26 288.517 198.989 206.659 169.75 141.138C143.161 81.5252 97.3291 18.4504 26.011 20.6882C11.6719 21.1368 -2.14564 25.0103 -14.9078 32.0052C-16.8636 33.0785 -15.2768 36.1544 -13.3165 35.0768Z" fill="url(#paint0_linear_75_92)"/>
<path d="M-22.889 57.329C7.67918 43.896 42.1283 51.0676 70.369 65.7532C102.155 82.2796 125.962 109.124 144.966 139.674C180.272 196.437 200.781 266.451 254.641 308.618C311.065 352.793 382.906 338.602 444.052 309.489C511.808 277.225 570.714 225.44 642.574 202.516C678.035 191.206 714.762 189.146 750.489 198.167C785.944 207.122 818.531 224.95 849.007 244.928C912.42 286.497 967.483 339.386 1029.29 383.172C1084.33 422.169 1145.98 451.242 1214.8 449.175C1293.49 446.809 1369.97 418.182 1449.15 421.666C1524.88 424.999 1590.17 465.392 1650.95 507.408C1715.08 551.733 1779.12 595.842 1845.13 637.221C1861.2 647.291 1877.33 657.258 1893.5 667.151C1895.37 668.296 1897.22 665.297 1895.35 664.152C1827.09 622.388 1759.69 579.153 1694.02 533.257C1635.8 492.563 1577.01 447.564 1508.02 427.685C1434.1 406.381 1356.21 424.868 1281.77 437.784C1241.82 444.715 1201.58 449.227 1161.74 441.492C1127.48 434.84 1095.3 420.578 1065.43 402.689C1001.18 364.201 946.812 311.104 886.537 266.826C830.068 225.343 764.977 184.162 692.025 189.198C620.636 194.123 558.049 238.5 498.119 275.602C434.639 314.907 351.061 356.523 279.259 320.193C214.883 287.621 190.412 212.051 156.478 152.292C126.048 98.7047 77.9639 47.3057 12.8302 46.6451C-0.0144117 46.5133 -12.5714 49.0191 -24.4888 54.2572C-26.5217 55.1497 -24.9177 58.2215 -22.8975 57.3288L-22.889 57.329Z" fill="url(#paint1_linear_75_92)"/>
<path d="M-32.8844 79.7511C-2.45667 70.0699 30.4598 79.0363 57.796 92.8591C87.7461 108 112.056 131.14 132.492 157.978C171.68 209.438 197.75 275.57 253.78 311.038C312.37 348.13 380.729 329.258 439.789 300.176C506.295 267.421 567.873 219.535 641.508 205.675C677.415 198.916 713.016 202.76 746.689 215.916C782.125 229.762 814.183 251.216 845.521 272.659C906.78 314.581 965.798 361.451 1031.35 396.351C1089.48 427.3 1151.04 442.008 1217.15 433.156C1256.03 427.95 1294.33 418.877 1333.42 415.389C1370.39 412.088 1408.39 411.603 1444.73 418.828C1516.13 433.023 1577.76 477.71 1637.19 517.708C1699.62 559.72 1764.04 598.041 1831.03 632.031C1846.58 639.922 1862.24 647.597 1877.98 655.103C1879.94 656.036 1881.8 653.042 1879.83 652.104C1812.09 619.794 1745.89 584.071 1682.6 543.471C1622.26 504.769 1564.62 459.37 1498.16 431.738C1431.42 403.986 1357.8 406.223 1286.99 417.821C1249.56 423.949 1212.12 432.958 1174.16 432.762C1139.1 432.58 1104.81 424.809 1072.46 411.807C1004.02 384.294 944.462 337.395 884.309 295.27C827.777 255.682 766.85 206.761 695.982 199.571C625.397 192.413 558.064 229.132 497.935 264.211C435.256 300.779 358.303 346.452 285.16 322.114C218.701 300.002 186.946 231.228 149.879 176.373C115.504 125.504 67.6468 79.2152 4.52665 72.7704C-8.30657 71.4586 -21.1953 72.3794 -33.648 76.3386C-35.7478 77.0067 -35.0056 80.4231 -32.8844 79.7511Z" fill="url(#paint2_linear_75_92)"/>
<path d="M-42.4562 102.004C-12.6938 96.5704 18.4098 106.836 44.7289 119.759C75.5186 134.883 101.637 156.933 124.634 182.606C166.077 228.877 198.898 288.415 257.034 314.985C321.012 344.226 388.898 315.627 447.916 284.411C511.748 250.647 576.795 209.334 650.439 210.03C725.244 210.738 784.693 262.08 843.914 301.69C902.397 340.807 963.411 379.375 1029.47 403.887C1059.4 414.993 1090.68 422.473 1122.67 424.348C1156.58 426.337 1189.67 421 1223.01 414.196C1260.31 406.583 1297.27 400.06 1335.26 401.047C1372.33 402.011 1409.54 407.934 1444.06 421.388C1510.86 447.415 1568.76 492.911 1628.98 531.151C1688.34 568.853 1751.18 600.518 1816.49 626.164C1831.83 632.188 1847.3 637.857 1862.87 643.244C1864.94 643.961 1865.98 640.586 1863.92 639.87C1796.03 616.403 1730.16 586.952 1667.96 550.767C1605.72 514.565 1548.49 469.652 1484.67 436.248C1422.89 403.915 1354.19 391.775 1284.48 399.79C1248.73 403.899 1213.82 413.936 1178.17 418.715C1142.29 423.525 1106.02 421.486 1071.09 413.028C1002.24 396.36 939.432 358.743 880.034 321.035C847.906 300.642 816.981 278.447 785.261 257.424C757.642 239.119 728.569 221.553 696.446 212.765C630.537 194.734 562.481 219.299 503.022 250.419C440.141 283.328 372.001 331.806 298.733 323.157C227.847 314.791 186.714 252.52 144.806 200.963C105.355 152.43 55.7571 109.055 -7.28436 98.713C-19.1883 96.7608 -31.2355 96.4055 -43.2155 98.5913C-45.3844 98.9869 -44.6164 102.395 -42.452 102.004L-42.4562 102.004Z" fill="url(#paint3_linear_75_92)"/>
<path d="M-52.4878 124.312C-23.3578 123.45 5.79895 134.274 31.6147 146.67C61.8577 161.192 88.8114 180.803 113.629 203.573C159.281 245.461 199.715 299.95 261.279 317.841C327.836 337.184 392.591 302.535 450.97 271.016C514.572 236.675 583.601 203.555 656.239 219.136C689.058 226.177 717.815 243.115 745.165 262.162C774.861 282.845 803.306 305.302 833.875 324.679C892.437 361.796 957.176 393.305 1025.09 408.082C1058.03 415.248 1091.87 417.668 1125.64 414.566C1159.35 411.472 1191.82 401.93 1224.87 394.551C1262.3 386.19 1299.57 383.682 1337.13 390.343C1372.1 396.542 1405.22 408.76 1436.33 425.841C1496.96 459.129 1551.68 502.398 1611.06 537.845C1670.45 573.301 1734.38 600.797 1800.83 619.595C1816.21 623.946 1831.72 627.793 1847.34 631.196C1849.46 631.661 1850.53 628.291 1848.39 627.822C1780.16 612.955 1713.92 589.078 1651.99 556.715C1589.42 524.011 1533.06 481.131 1473.32 443.644C1416.27 407.835 1354.12 381.195 1285.44 382.741C1250.58 383.525 1216.77 392.968 1182.86 401.072C1147.99 409.409 1112.75 413.992 1077.13 411.853C1004.76 407.508 935.338 378.396 872.661 343.605C840.279 325.632 809.811 304.845 779.895 282.925C752.796 263.062 725.669 242.329 695.065 228.314C635.991 201.262 570.802 211.012 511.699 236.273C445.806 264.438 383.946 315.806 310.774 319.928C237.644 324.047 187.684 271.633 139.659 223.776C95.0588 179.331 44.5535 140.011 -17.3045 124.99C-28.7627 122.208 -40.484 120.448 -52.3448 120.8C-54.5336 120.863 -54.6939 124.383 -52.4922 124.316L-52.4878 124.312Z" fill="#0D509F"/>
<path d="M-62.0639 146.564C-31.8483 150.932 -2.50534 163.276 24.7292 176.594C54.3802 191.091 81.7874 209.181 108.159 229.143C159.008 267.631 208.721 314.627 275.145 320.089C343.764 325.732 405.424 282.752 464.601 252.002C529.577 218.236 602.299 203.12 669.055 236.524C696.953 250.486 721.161 271.127 745.347 290.745C773.189 313.325 801.502 334.975 832.789 352.392C891.876 385.289 958.763 407.274 1026.64 410.628C1060.39 412.295 1094.28 408.803 1127.46 401.326C1161.14 393.733 1193.64 380.953 1227.56 374.466C1301.04 360.407 1366.35 391.162 1425.45 431.573C1481.58 469.95 1535.26 512.306 1594.82 545.208C1654.99 578.451 1720.61 601.813 1788.36 613.435C1802.91 615.933 1817.56 617.851 1832.27 619.224C1834.45 619.428 1834.59 615.912 1832.42 615.709C1762.71 609.199 1694.43 589.789 1631.25 559.936C1568.56 530.315 1512.64 488.883 1456.19 448.781C1403.77 411.545 1348.8 373.695 1283.06 367.798C1248.46 364.697 1214.75 372.766 1181.46 382.662C1147.15 392.864 1113.11 402.504 1077.55 405.922C1006.43 412.754 935.334 396.572 870.933 367.619C837.509 352.592 806.182 333.606 776.942 311.337C750.678 291.334 726.022 269.062 698.841 250.338C674.299 233.427 647.206 220.96 617.735 216.027C586.218 210.753 553.955 214.494 523.119 223.607C455.462 243.608 399.144 293.171 330.809 311.278C295.63 320.596 259.529 318.154 226.2 304.672C195.276 292.159 168.335 271.631 142.143 251.14C89.7701 210.176 36.5905 172.29 -26.9942 151.568C-38.4045 147.847 -50.0161 144.782 -61.917 143.062C-64.0816 142.749 -64.2081 146.27 -62.0644 146.577L-62.0639 146.564Z" fill="#0D509F"/>
<path d="M-72.0903 168.741C-9.79756 190.165 48.5395 220.747 104.929 254.719C161.675 288.904 220.998 325.382 290.24 317.57C358.351 309.884 414.781 262.391 476.362 235.028C510.257 219.964 547.693 212.49 584.091 217.644C615.283 222.063 644.383 235.967 669.494 254.844C695.218 274.18 717.714 297.652 741.972 318.806C767.967 341.474 795.867 361.24 826.931 375.998C887.591 404.824 956.229 416.902 1023.43 409.786C1058.11 406.114 1092.2 397.48 1125.4 386.166C1157.91 375.091 1189.82 360.842 1223.87 356.077C1297.22 345.808 1354.87 391.946 1408.63 434.998C1461.87 477.641 1516.04 520.274 1576.82 551.261C1637.01 581.939 1703.17 601.129 1770.68 606.136C1786 607.273 1801.37 607.599 1816.76 607.168C1818.94 607.105 1819.1 603.589 1816.9 603.652C1748.76 605.559 1680.71 591.89 1617.95 566.267C1552.57 539.576 1494.68 498.386 1439.19 454.821C1389.89 416.112 1341.14 367.968 1278.17 354.502C1209.33 339.775 1144.46 380.038 1078.74 396.352C1008.44 413.801 936.043 411.68 868.007 388.8C834.58 377.559 802.84 361.457 774.322 340.467C746.983 320.35 722.894 296.28 697.574 273.67C653.11 233.957 601.549 206.88 540.395 213.66C470.523 221.406 413.82 268.853 350.608 296.72C315.186 312.337 277.685 319.023 239.877 312.549C206.624 306.854 175.986 292.061 146.853 275.512C115.241 257.56 84.7458 237.643 52.7818 220.312C24.4217 204.938 -4.95956 191.387 -34.7735 179.16C-46.7441 174.251 -58.8094 169.581 -71.0424 165.375C-73.114 164.663 -74.158 168.037 -72.0906 168.749L-72.0903 168.741Z" fill="#0D509F"/>
<path d="M-82.0666 190.81C-55.9911 205.804 -28.3585 218.015 -1.08744 230.565C31.3793 245.506 63.5521 261.088 96.0755 275.89C158.524 304.316 225.373 329.719 295.305 313.058C365.862 296.243 420.855 240.603 489.922 219.902C523.158 209.939 558.59 210.134 590.764 222.262C620.114 233.326 645.151 253.071 667.215 275.328C689.336 297.638 709.624 321.816 732.84 342.974C757.361 365.317 784.764 383.522 815.322 396.07C878.576 422.053 949.203 424.268 1015.89 407.713C1049.92 399.262 1082.92 386.461 1115.21 372.379C1148.42 357.895 1182.04 341.148 1218.35 338.581C1292.37 333.34 1342.23 394.341 1392.08 439.78C1441.92 485.219 1496.27 527.606 1557.33 556.374C1619.19 585.523 1687.89 600.968 1756.62 599.029C1771.69 598.605 1786.72 597.253 1801.68 595.065C1803.86 594.748 1803.09 591.34 1800.92 591.652C1731.16 601.857 1659.4 592.305 1593.98 567.999C1527.37 543.252 1468.4 501.795 1414.72 455.252C1389.74 433.598 1366.61 409.915 1342 387.875C1319.54 367.77 1294.74 349.638 1265.82 340.691C1198.46 319.849 1134.3 362.807 1072.35 386.151C1003.22 412.209 930.635 423.534 858.972 406.409C825.134 398.319 792.683 384.305 764.228 364.025C737.233 344.784 714.407 320.509 691.824 296.187C652.913 254.28 609.738 214.24 550.354 209.627C479.636 204.132 420.705 250.225 360.659 282.714C326.776 301.047 291.604 313.924 253.341 314.963C218.085 315.918 183.898 307.344 151.162 295.274C115.652 282.179 81.5958 265.346 47.3965 249.189C17.1606 234.902 -13.4297 221.387 -43.54 206.832C-55.9354 200.839 -68.2688 194.682 -80.2164 187.811C-82.1154 186.722 -83.9654 189.716 -82.0623 190.81L-82.0666 190.81Z" fill="#0D509F"/>
<path d="M-91.6426 213.062C-68.1776 232.918 -39.4937 246.228 -11.7367 258.604C20.849 273.132 54.1669 286.364 88.1238 297.294C156.167 319.19 229.584 332.361 299.705 307.254C366.858 283.208 421.017 224.923 491.552 210.635C525.28 203.804 559.635 209.675 589.052 226.916C615.137 242.203 636.266 264.418 655.301 287.971C675.206 312.599 693.85 338.394 716.342 360.643C740.054 384.097 767.633 402.554 798.78 414.005C865.464 438.509 938.393 431.409 1004.78 405.9C1038.22 393.052 1070.27 376.495 1102.03 359.651C1134.22 342.572 1167.97 323.79 1204.65 322.052C1281.14 318.429 1323.75 392.364 1370.91 440.998C1417.92 489.472 1472.38 532.075 1533.78 559.583C1597.82 588.275 1669.82 600.262 1740.06 591.808C1755.59 589.938 1770.97 586.989 1786.17 583.013C1788.31 582.455 1787.55 579.043 1785.41 579.601C1715.88 597.796 1641.91 593.434 1574.56 571.527C1506.33 549.334 1445.79 507.9 1393.62 458.521C1369.04 435.254 1347.41 409.505 1325.03 384.059C1303.95 360.083 1280.44 337.499 1250.45 326.002C1184.55 300.746 1120.55 347.161 1062.62 376.14C995.295 409.826 924.155 433.788 849.347 423.074C812.707 417.827 777.216 404.488 747.182 382.552C720.449 363.033 698.836 337.516 678.299 311.471C642.947 266.636 605.242 218.407 546.717 206.853C478.729 193.434 419.705 236.912 363.514 271.125C331.275 290.756 298.133 307.273 261.145 313.843C222.481 320.71 183.512 317.552 145.617 309.398C110.708 301.889 76.6348 290.498 43.3875 277.604C10.3777 264.802 -22.6473 251.252 -53.7032 234.09C-66.349 227.1 -78.7 219.443 -89.7921 210.055C-91.4696 208.634 -93.2953 211.655 -91.638 213.054L-91.6426 213.062Z" fill="#0D509F"/>
<path d="M-101.554 235.031C-82.1174 257.788 -54.6416 272.326 -27.9182 284.195C5.6886 299.125 41.1333 310.339 77.1437 317.763C149.396 332.658 226.217 334.164 296.078 303.741C330.525 288.742 361.014 265.971 392.592 245.543C424.2 225.099 458.48 204.877 496.196 202.147C565.525 197.127 611.434 251.487 646.383 304.833C663.58 331.083 680.487 357.808 702.071 380.496C725.639 405.272 754.291 423.66 786.819 433.518C855.978 454.481 928.611 437.662 992.567 404.574C1026.58 386.978 1058.77 365.795 1091.27 345.396C1122.5 325.796 1156.81 305.374 1194.14 305.503C1271.55 305.777 1306.06 391.814 1349.99 442.653C1394.4 494.049 1449.44 537.281 1511.64 563.512C1576.9 591.036 1650.65 599.257 1720.82 585.219C1737.76 581.831 1754.38 577.047 1770.64 570.961C1772.7 570.191 1771.96 566.771 1769.88 567.548C1700.38 593.564 1623.54 594.544 1553.48 574.507C1484.77 554.857 1423.44 514.04 1373.31 462.834C1348.96 437.954 1328.6 410.309 1308.61 381.674C1289.56 354.376 1268.44 327.387 1238.3 312.627C1173.29 280.789 1109.18 330.252 1054.47 364.471C988.515 405.721 919.023 442.709 840.471 439.028C803.793 437.309 767.395 426.809 736.952 405.948C708.181 386.233 686.269 358.446 666.733 329.467C634.764 282.041 604.423 227.639 548.944 206.393C482.586 180.983 420.629 222.558 365.84 259.109C333.79 280.489 301.556 300.417 264.788 311.551C227.252 322.917 188.299 326.268 149.625 324.06C110.38 321.823 71.3362 314.506 33.8266 303.125C-0.172954 292.812 -34.2041 280.019 -64.5317 261.15C-77.2325 253.245 -89.2199 244.091 -99.0455 232.588C-100.483 230.906 -102.996 233.344 -101.558 235.023L-101.554 235.031Z" fill="#0D509F"/>
<path d="M-111.378 256.925C-94.8707 282.758 -68.1033 299.235 -40.9649 311.209C-7.18766 326.116 29.4 334.828 66.1085 338.638C143.023 346.62 223.527 336.774 293.808 299.773C327.775 281.887 357.667 257.193 389.505 235.709C421.509 214.115 457.355 193.93 496.346 195.341C567.906 197.934 606.43 265.536 637.06 322.545C652.678 351.616 668.986 380.793 691.656 404.645C715.519 429.76 745.807 446.648 779.451 453.728C853.21 469.254 925.304 440.534 987.248 398.872C1020.05 376.805 1050.91 351.821 1083.09 328.814C1113.71 306.928 1149.8 285.005 1188.09 289.666C1226.69 294.363 1254.57 324.62 1274.29 356.519C1293.48 387.571 1309.54 420.012 1332.28 448.604C1374.71 501.968 1430.7 545.186 1493.9 569.2C1561.7 594.959 1638.24 598.187 1708.64 577.094C1724.71 572.28 1740.36 566.103 1755.54 558.748C1757.55 557.776 1755.95 554.705 1753.95 555.676C1684.69 589.229 1604.79 595.744 1531.72 577.391C1462.49 559.999 1400.42 519.542 1352.14 466.548C1327.89 439.931 1308.78 410.122 1291.09 378.555C1274.62 349.164 1256.76 319.198 1228.15 300.903C1163.59 259.625 1097.5 313.343 1044.93 352.8C982.131 399.944 916.532 448.256 837.052 453.88C798.633 456.599 759.411 449.484 726.589 428.971C696.616 410.24 674.833 381.489 656.856 351.001C626.297 299.172 602.629 236.881 548.173 206.486C520.287 190.921 487.799 187.9 456.916 197.125C423.33 207.159 393.527 228.206 365.019 248.672C333.803 271.082 303.004 293.354 267.707 308.326C229.36 324.588 188.587 333.631 147.548 336.606C107.015 339.542 65.6513 337.317 26.0899 328.796C-8.48758 321.35 -43.4829 309.726 -73.0994 289.862C-86.8547 280.637 -99.2893 269.415 -108.362 255.218C-109.547 253.361 -112.579 255.055 -111.378 256.929L-111.378 256.925Z" fill="#0D509F"/>
<path d="M-120.955 279.177C-89.6093 343.571 -3.7453 359.895 60.0361 359.867C140.333 359.834 221.647 339.06 291.439 295.85C325.301 274.885 354.958 247.724 387.642 224.964C421.081 201.683 459.9 182.038 500.753 190.075C571.209 203.927 600.742 281.151 627.133 340.646C640.951 371.794 656.377 403.016 679.856 427.585C704.281 453.148 736.217 468.406 770.966 472.777C848.593 482.545 919.505 442.619 978.968 393.739C1010.29 367.991 1039.66 339.776 1071.19 314.299C1102.6 288.915 1142.66 263.772 1183.48 275.523C1221.46 286.459 1244.43 322.08 1260.79 356.53C1276.6 389.849 1290.75 423.042 1312.54 452.767C1353.51 508.684 1410.91 552.482 1475.87 574.54C1545.18 598.076 1623.01 596.448 1692.39 569.796C1708.86 563.469 1724.75 555.732 1740.02 546.692C1741.94 545.557 1740.36 542.476 1738.43 543.62C1671.22 583.41 1590.8 596.44 1515.87 581.589C1445.02 567.545 1380.91 527.911 1333.25 473.112C1309.25 445.529 1290.84 414.45 1275.67 380.873C1261.07 348.563 1246.79 314.682 1219.53 291.563C1193.21 269.247 1160.16 263.569 1127.51 275.747C1093.86 288.293 1065.82 313.7 1038.84 337.276C977.636 390.748 915.795 450.584 834.698 466.563C795.228 474.339 752.946 471.688 717.472 452.29C685.489 434.802 663.198 405.132 646.285 372.816C616.435 315.784 599.528 247.048 546.43 207.136C520.673 187.773 488.578 180.328 456.797 187.419C422.185 195.14 391.749 216.855 363.616 238.37C331.309 263.078 300.174 288.59 264.15 307.367C227.436 326.502 188.228 339.966 148.037 347.858C105.484 356.217 60.915 359.317 18.1202 353.844C-18.1637 349.204 -55.6882 338.484 -85.348 316.219C-99.0134 305.959 -110.32 293.092 -117.934 277.448C-118.909 275.443 -121.929 277.154 -120.95 279.159L-120.955 279.177Z" fill="url(#paint4_linear_75_92)"/>
<path d="M-130.531 301.429C-107.259 364.062 -34.9042 382.762 24.5952 382.198C103.727 381.45 184.402 355.923 253.431 315.123C287.975 294.701 318.298 269.221 349.007 243.241C379.061 217.816 412.029 190.717 450.914 182.84C535.931 165.624 580.395 254.927 603.955 322.811C627.277 390.017 653.332 465.412 727.556 485.712C801.751 506.003 877.871 468.775 935.076 420.289C968.242 392.18 997.83 359.991 1028.56 329.16C1058.11 299.502 1091.72 264.177 1134.02 257.107C1178.29 249.716 1212.2 283.204 1230.78 320.511C1250.01 359.135 1259.37 401.952 1281.27 439.325C1318.41 502.706 1377.5 551.96 1445.79 575.775C1518.17 601.02 1599.8 596.238 1670.96 564.871C1689.7 556.608 1707.58 546.443 1724.5 534.649C1726.32 533.381 1724.75 530.292 1722.91 531.578C1653.8 579.755 1567.2 598.835 1486.34 583.076C1412.44 568.675 1346.03 524.691 1301.17 463.346C1276.72 429.905 1262.68 392.536 1248.35 353.575C1235.3 318.094 1217.8 280.984 1184.02 262.299C1151.05 244.056 1114.48 254.565 1084.27 275.244C1050.63 298.281 1022.71 330.199 994.125 359.336C935.609 418.993 870.173 479.562 784.928 486.864C745.669 490.226 705.888 480.677 676.28 453.741C648.472 428.442 632.643 392.609 619.712 357.358C596.953 295.309 577.003 216.905 513.128 186.731C443.035 153.619 377.642 214.477 326.24 258.15C261.399 313.241 186.308 352.309 104.242 369.383C37.7799 383.211 -48.8268 388.736 -101.991 338.563C-113.402 327.796 -121.964 314.636 -127.51 299.71C-128.287 297.617 -131.3 299.345 -130.527 301.421L-130.531 301.42L-130.531 301.429Z" fill="url(#paint5_linear_75_92)"/>
</g>
<defs>
<linearGradient id="paint0_linear_75_92" x1="-28.1979" y1="328.963" x2="1920.06" y2="410.68" gradientUnits="userSpaceOnUse">
<stop stop-color="#0D509F"/>
<stop offset="0.99" stop-color="#CEE873"/>
</linearGradient>
<linearGradient id="paint1_linear_75_92" x1="-37.1904" y1="336.073" x2="1903.61" y2="417.477" gradientUnits="userSpaceOnUse">
<stop stop-color="#0D509F"/>
<stop offset="0.99" stop-color="#CEE873"/>
</linearGradient>
<linearGradient id="paint2_linear_75_92" x1="-46.009" y1="342.963" x2="1887.32" y2="424.054" gradientUnits="userSpaceOnUse">
<stop stop-color="#0D509F"/>
<stop offset="0.99" stop-color="#CEE873"/>
</linearGradient>
<linearGradient id="paint3_linear_75_92" x1="-54.9816" y1="349.619" x2="1870.85" y2="430.395" gradientUnits="userSpaceOnUse">
<stop stop-color="#0D509F"/>
<stop offset="0.99" stop-color="#CEE873"/>
</linearGradient>
<linearGradient id="paint4_linear_75_92" x1="-124.723" y1="363.561" x2="1742.66" y2="441.886" gradientUnits="userSpaceOnUse">
<stop stop-color="#0D509F"/>
<stop offset="0.99" stop-color="#2E82FF"/>
</linearGradient>
<linearGradient id="paint5_linear_75_92" x1="-133.166" y1="360.511" x2="1726.9" y2="438.529" gradientUnits="userSpaceOnUse">
<stop stop-color="#0D509F"/>
<stop offset="0.99" stop-color="#E9F2FD"/>
</linearGradient>
</defs>
</svg>
