<svg width="649" height="523" viewBox="0 0 649 523" fill="none" xmlns="http://www.w3.org/2000/svg">
<g opacity="0.3">
<path d="M-370.945 26.7268C-352.896 17.4471 -333.548 22.8985 -318.713 35.119C-302.877 48.1598 -293.345 68.279 -286.665 89.5955C-274.179 129.438 -270.277 176.396 -244.555 207.659C-218.915 238.82 -180.014 236.021 -145.931 221.45C-108.648 205.512 -76.3626 175.391 -38.9692 159.779C-19.631 151.706 0.532856 148.535 20.1455 152.841C40.1457 157.236 58.2345 168.533 74.2178 182.48C105.352 209.653 128.226 246.805 154.659 279.731C178.475 309.399 206.287 336.816 241.54 345.253C280.456 354.567 320.946 340.034 360.423 336.896C381.616 335.211 402.377 337.432 421.802 346.279C440.652 354.862 457.454 368.239 473.056 382.952C489.257 398.23 504.458 414.956 519.885 431.293C536.702 449.102 553.521 466.908 570.338 484.717C578.746 493.621 587.155 502.526 595.563 511.43C596.404 512.32 597.549 510.571 596.713 509.689C562.973 473.965 529.397 438.008 495.473 402.529C466.834 372.577 435.233 342.683 395.563 335.862C355.1 328.904 313.884 345.008 273.118 346.063C253.21 346.578 233.889 342.764 216.177 333.159C198.786 323.729 183.564 309.848 169.764 294.496C142.144 263.768 120.141 226.631 91.8575 196.694C64.6487 167.893 30.6806 144.804 -8.33428 149.251C-46.9295 153.649 -81.0509 181.49 -115.15 202.817C-150.279 224.787 -197.046 243.974 -231.567 217.499C-264.254 192.435 -270.364 141.504 -281.646 100.154C-291.904 62.5332 -312.02 21.8811 -349.48 19.8344C-357.012 19.4221 -364.481 21.123 -371.589 24.7778C-372.678 25.3387 -372.036 27.2901 -370.945 26.7268Z" fill="url(#paint0_linear_55_57)"/>
<path d="M-377.319 39.8372C-360.498 33.1085 -342.909 39.1292 -329.031 49.4344C-313.41 61.0318 -302.598 78.5388 -294.526 98.0756C-279.532 134.376 -273.094 178.048 -247.494 206.335C-220.675 235.97 -182.208 230.753 -148.423 215.926C-110.984 199.494 -76.9795 170.735 -37.9667 160.195C-18.7146 154.995 0.631696 155.495 18.7756 162.705C36.7809 169.861 52.741 182.29 67.4645 195.93C98.1009 224.309 123.673 259.192 153.33 288.847C179.747 315.258 210.222 335.934 246.367 337.965C287.694 340.286 329.474 326.489 370.695 332.401C410.126 338.055 441.814 365.808 471.047 394.335C501.886 424.429 532.697 454.387 564.706 482.776C572.497 489.685 580.325 496.533 588.181 503.339C589.09 504.127 590.243 502.387 589.331 501.599C556.17 472.868 523.553 443.282 492 412.156C464.027 384.557 436.022 354.308 401.138 338.887C363.76 322.361 321.864 329.908 282.113 334.223C260.78 336.538 239.447 337.365 219.072 330.743C201.551 325.048 185.582 314.812 171.05 302.476C139.787 275.935 114.59 240.959 85.762 211.077C58.7548 183.081 27.2169 154.858 -11.2704 154.439C-48.9325 154.028 -84.4087 178.093 -118.048 197.85C-153.681 218.78 -199.973 240.158 -235.321 214.571C-267.013 191.631 -275.183 144.381 -289.276 106.32C-301.914 72.1898 -323.925 38.5494 -357.971 35.0312C-364.685 34.3364 -371.41 35.2637 -377.968 37.8877C-379.087 38.3346 -378.436 40.2844 -377.324 39.8367L-377.319 39.8372Z" fill="url(#paint1_linear_55_57)"/>
<path d="M-383.926 53.0313C-367.408 48.5836 -350.731 55.6253 -337.273 65.3612C-322.528 76.0262 -311.226 91.2982 -302.178 108.64C-284.826 141.893 -275.24 183.464 -248.093 207.77C-219.706 233.189 -182.774 224.952 -150.082 210.044C-113.268 193.253 -78.1044 166.999 -38.718 162.07C-19.5125 159.666 -1.11687 163.713 15.6981 173.346C33.3936 183.483 48.8544 198.098 63.9392 212.672C93.4266 241.164 121.437 272.566 153.603 296.981C182.124 318.633 213.441 330.546 248.579 328.31C269.247 326.996 289.847 323.295 310.519 323.039C330.066 322.794 349.986 324.316 368.561 330.459C405.056 342.53 434.566 372.725 463.216 399.957C493.307 428.56 524.671 455.007 557.644 478.937C565.299 484.493 573.023 489.921 580.799 495.251C581.766 495.913 582.924 494.177 581.949 493.511C548.484 470.569 516.03 445.621 485.397 417.838C456.196 391.353 428.814 360.914 395.729 340.887C362.503 320.772 323.838 318.615 286.068 322.3C266.104 324.246 245.961 327.949 226.107 326.014C207.767 324.226 190.302 317.848 174.171 308.372C140.04 288.323 111.747 256.877 82.8513 228.314C55.6951 201.472 26.8108 168.728 -9.83556 160.954C-46.336 153.213 -83.8261 172.382 -117.446 190.895C-152.491 210.195 -195.565 234.363 -232.351 216.025C-265.774 199.363 -278.173 155.909 -294.207 120.688C-309.075 88.0266 -331.281 57.513 -363.919 50.5642C-370.554 49.1505 -377.356 49.0955 -384.116 50.914C-385.256 51.2209 -385.077 53.3396 -383.926 53.0313Z" fill="url(#paint2_linear_55_57)"/>
<path d="M-390.3 66.142C-374.391 64.2526 -358.743 71.9998 -345.762 81.1382C-330.577 91.8329 -318.261 106.527 -307.801 123.281C-288.95 153.477 -275.427 191.351 -246.632 210.332C-214.944 231.222 -177.663 217.031 -144.861 200.82C-109.385 183.285 -72.8088 161.206 -34.3112 165.153C4.79296 169.163 32.755 203.312 61.3174 230.296C89.5239 256.946 119.089 283.381 152.157 301.486C167.136 309.69 183.047 315.747 199.675 318.42C217.299 321.255 234.945 319.584 252.81 317.03C272.794 314.171 292.539 311.962 312.361 314.381C331.699 316.742 350.809 322.133 368.053 331.988C401.414 351.053 428.923 381.564 458.09 407.761C486.842 433.589 517.789 455.903 550.395 474.664C558.052 479.071 565.8 483.267 573.619 487.297C574.659 487.833 575.41 485.825 574.374 485.29C540.288 467.734 507.622 446.625 477.289 421.587C446.937 396.535 419.743 366.412 388.391 342.991C358.043 320.321 322.838 309.633 285.863 311.186C266.903 311.981 248.018 316.432 229.064 317.641C209.992 318.857 191.136 315.879 173.375 309.051C138.368 295.595 107.805 269.653 79.0337 243.82C63.4711 229.849 48.6485 214.836 33.338 200.5C20.0072 188.017 5.86989 175.916 -10.4021 169.021C-43.7885 154.874 -80.9115 166.598 -113.938 182.729C-148.864 199.788 -187.498 226.088 -225.311 217.31C-261.895 208.818 -279.601 168.881 -298.37 135.439C-316.039 103.96 -339.334 75.1393 -371.691 65.8178C-377.801 64.0581 -384.084 63.2652 -390.488 64.025C-391.647 64.1625 -391.454 66.2774 -390.298 66.1423L-390.3 66.142Z" fill="url(#paint3_linear_55_57)"/>
<path d="M-396.918 79.2646C-381.621 80.1326 -367.026 88.1267 -354.276 96.9201C-339.34 107.222 -326.437 120.469 -314.847 135.54C-293.525 163.265 -275.707 198.424 -244.586 212.277C-210.941 227.255 -174.927 209.225 -142.442 192.799C-107.05 174.901 -68.8931 158.008 -31.8349 170.982C-15.0914 176.845 -1.08146 188.549 12.0634 201.471C26.3357 215.503 39.8439 230.557 54.6529 243.834C83.0239 269.268 114.971 291.576 149.606 303.835C166.403 309.78 183.966 312.874 201.832 312.599C219.663 312.324 237.24 308.059 254.985 305.14C275.089 301.832 294.746 302.086 313.997 307.944C331.917 313.396 348.5 322.431 363.733 334.333C393.421 357.531 419.404 386.531 448.302 410.985C477.208 435.445 508.981 455.269 542.6 469.909C550.382 473.298 558.265 476.386 566.23 479.208C567.313 479.593 568.075 477.589 566.985 477.201C532.194 464.873 498.988 447.144 468.565 424.449C437.824 401.515 410.962 372.674 381.999 346.958C354.338 322.395 323.449 303.178 287.41 300.836C269.119 299.646 250.845 303.787 232.605 307.107C213.842 310.523 195.119 311.632 176.61 308.624C139.002 302.512 104.457 281.441 73.79 257.229C57.946 244.722 43.2765 230.59 28.9653 215.793C16.0016 202.385 3.07715 188.445 -12.0788 178.436C-41.3347 159.116 -76.0485 161.943 -108.529 174.519C-144.741 188.54 -180.265 216.904 -218.812 215.917C-257.336 214.93 -280.266 180.582 -302.463 149.104C-323.078 119.87 -347.097 93.4787 -378.547 81.3611C-384.373 79.1168 -390.399 77.4828 -396.628 77.1303C-397.778 77.064 -398.077 79.2025 -396.921 79.267L-396.918 79.2646Z" fill="#0D509F"/>
<path d="M-403.295 92.3747C-387.75 96.4831 -373.151 105.413 -359.716 114.837C-345.088 125.094 -331.854 137.436 -319.278 150.869C-295.028 176.769 -271.894 207.803 -237.467 214.31C-201.903 221.033 -166.998 197.775 -134.142 181.856C-98.0664 164.375 -59.0809 158.637 -26.1947 182.198C-12.4511 192.045 -1.04881 205.789 10.4054 218.908C23.5907 234.008 37.0796 248.564 52.3846 260.68C81.2888 283.565 114.945 300.17 150.258 305.461C167.82 308.092 185.773 307.584 203.595 304.612C221.686 301.593 239.48 295.355 257.625 293.022C296.944 287.963 329.235 309.84 357.688 337.308C384.708 363.393 410.202 391.787 439.352 414.698C468.801 437.846 501.71 455.23 536.453 465.557C543.917 467.776 551.462 469.646 559.079 471.187C560.208 471.416 560.497 469.278 559.372 469.051C523.288 461.747 488.745 446.646 457.512 425.42C426.524 404.361 399.798 376.423 372.716 349.271C347.568 324.059 321.122 298.35 287.08 291.61C269.164 288.065 251.029 291.372 232.998 295.814C214.417 300.394 196.009 304.643 177.191 305.027C139.554 305.791 103.34 292.523 71.4129 271.789C54.8423 261.028 39.6128 247.952 25.6765 232.975C13.159 219.522 1.62207 204.762 -11.4543 192.045C-23.2604 180.56 -36.6739 171.662 -51.7948 167.245C-67.9648 162.522 -85.0788 163.26 -101.775 167.342C-138.41 176.301 -170.923 203.828 -207.796 211.6C-226.778 215.6 -245.521 212.384 -262.136 202.569C-277.552 193.46 -290.392 179.654 -302.842 165.907C-327.738 138.424 -353.244 112.78 -385.249 97.103C-390.992 94.2885 -396.881 91.8643 -403.003 90.246C-404.117 89.952 -404.399 92.0926 -403.296 92.3827L-403.295 92.3747Z" fill="#0D509F"/>
<path d="M-409.903 105.418C-378.617 121.461 -349.964 142.898 -322.537 166.31C-294.937 189.869 -266.129 214.948 -229.413 213.497C-193.297 212.068 -160.852 185.809 -126.946 172.069C-108.283 164.505 -88.2332 161.739 -69.5011 166.622C-53.4483 170.809 -39.0725 180.678 -27.0887 193.39C-14.8127 206.41 -4.47994 221.798 6.91736 235.857C19.1308 250.922 32.5195 264.309 47.8706 274.794C77.8479 295.272 113.027 305.919 148.635 304.795C167.007 304.214 185.38 300.581 203.448 295.27C221.137 290.071 238.712 282.91 256.822 281.632C295.841 278.88 323.183 309.77 348.674 338.592C373.922 367.141 399.654 395.727 429.564 417.529C459.176 439.113 492.623 453.978 527.647 460.261C535.594 461.687 543.62 462.621 551.698 463.094C552.847 463.16 553.146 461.024 551.99 460.957C516.212 458.861 481.44 447.271 450.167 428.646C417.589 409.243 389.816 381.358 363.452 352.141C340.026 326.18 317.464 294.492 285.339 283.27C250.214 270.997 213.794 292.445 178.401 299.249C140.542 306.526 102.784 301.77 68.5821 284.565C51.7783 276.111 36.1554 264.775 22.5184 250.612C9.44499 237.038 -1.685 221.209 -13.5485 206.212C-34.3819 179.87 -59.7045 160.894 -92.1244 162.103C-129.166 163.484 -161.751 189.703 -196.542 203.671C-216.037 211.499 -236.073 213.782 -255.462 208.027C-272.515 202.964 -287.642 192.478 -301.872 180.994C-317.315 168.535 -332.052 154.932 -347.717 142.836C-361.615 132.105 -376.16 122.437 -391.013 113.555C-396.976 109.99 -403.004 106.565 -409.148 103.416C-410.188 102.882 -410.942 104.89 -409.903 105.423L-409.903 105.418Z" fill="#0D509F"/>
<path d="M-416.477 118.397C-403.751 128.787 -390.039 137.554 -376.537 146.511C-360.463 157.174 -344.581 168.214 -328.469 178.795C-297.532 199.115 -264.105 217.802 -226.485 210.988C-188.529 204.11 -156.336 172.814 -118.921 163.495C-100.916 159.009 -82.3854 160.823 -66.2919 169.757C-51.6107 177.907 -39.7192 191.144 -29.5379 205.77C-19.3301 220.432 -10.1958 236.145 0.655738 250.156C12.118 264.953 25.3418 277.364 40.5644 286.478C72.0734 305.346 108.899 310.075 144.812 303.169C163.143 299.644 181.195 293.418 198.96 286.375C217.228 279.133 235.849 270.529 255.009 270.7C294.068 271.045 316.42 310.625 339.719 340.716C363.018 370.807 388.859 399.252 419.047 419.714C449.634 440.446 484.637 453.149 520.724 455.255C528.637 455.717 536.588 455.611 544.553 454.993C545.71 454.904 545.515 452.788 544.363 452.876C507.227 455.761 470.259 446.504 437.513 428.555C404.171 410.279 375.856 382.18 350.618 351.233C338.877 336.835 328.225 321.288 316.693 306.672C306.173 293.338 294.306 281.096 279.722 274.257C245.747 258.327 209.535 281.452 175.687 292.723C137.907 305.305 99.2265 308.739 62.7736 294.869C45.561 288.318 29.4383 278.221 15.791 264.494C2.84407 251.471 -7.61251 235.577 -17.9388 219.667C-35.7313 192.252 -55.8701 165.773 -86.6647 160.12C-123.337 153.387 -157.005 178.673 -190.422 195.611C-209.279 205.169 -228.475 211.339 -248.564 210.142C-267.073 209.038 -284.438 202.175 -300.829 193.25C-318.61 183.566 -335.4 171.674 -352.306 160.186C-367.253 150.028 -382.433 140.324 -397.298 130.009C-403.417 125.762 -409.494 121.418 -415.325 116.657C-416.252 115.902 -417.404 117.639 -416.475 118.397L-416.477 118.397Z" fill="#0D509F"/>
<path d="M-422.854 131.507C-411.792 144.737 -397.597 154.224 -383.83 163.098C-367.669 173.515 -351.044 183.177 -333.944 191.466C-299.677 208.071 -262.064 219.614 -223.827 207.659C-187.208 196.209 -155.29 163.26 -117.5 157.922C-99.4299 155.369 -81.8107 160.593 -67.4734 172.513C-54.7604 183.082 -45.0657 197.638 -36.5489 212.909C-27.6428 228.879 -19.468 245.499 -9.06206 260.141C1.90854 275.577 15.2089 288.15 30.8068 296.622C64.2017 314.752 102.803 313.912 139.111 301.533C157.398 295.298 175.19 286.735 192.841 277.984C210.737 269.11 229.552 259.272 248.856 259.967C289.108 261.416 306.867 308.535 328.564 340.446C350.194 372.252 376.081 400.834 406.527 420.544C438.283 441.102 475.226 451.855 512.503 450.059C520.745 449.662 528.975 448.599 537.173 446.902C538.326 446.664 538.14 444.548 536.983 444.785C499.481 452.554 461.039 446.357 427.133 429.777C392.787 412.981 363.647 384.821 339.375 352.217C327.939 336.854 318.197 320.119 308.049 303.533C298.487 287.906 287.57 273.01 272.577 264.565C239.64 246.014 203.3 271.254 171.208 286.154C133.906 303.473 95.2062 314.681 56.7137 304.57C37.8607 299.619 20.1054 289.787 5.73343 274.975C-7.05944 261.795 -16.8051 245.202 -25.9546 228.339C-41.7051 199.31 -58.4788 168.099 -88.3981 158.254C-123.155 146.82 -156.712 170.507 -188.217 188.682C-206.293 199.11 -224.651 207.596 -244.411 209.833C-265.067 212.17 -285.266 208.381 -304.598 201.596C-322.407 195.348 -339.539 186.773 -356.148 177.32C-372.637 167.935 -389.089 158.094 -404.289 146.144C-410.478 141.276 -416.472 136.017 -421.701 129.762C-422.492 128.815 -423.633 130.57 -422.851 131.502L-422.854 131.507Z" fill="#0D509F"/>
<path d="M-429.389 144.429C-420.613 159.235 -407.126 169.414 -393.869 177.929C-377.197 188.64 -359.335 197.173 -340.945 203.422C-304.047 215.96 -263.936 220.553 -225.51 205.344C-206.562 197.846 -189.209 185.419 -171.43 174.474C-153.635 163.52 -134.454 152.83 -114.548 152.969C-77.9582 153.224 -57.2674 188.566 -42.2502 222.765C-34.8605 239.594 -27.6522 256.698 -17.7485 271.564C-6.93455 287.799 6.9325 300.381 23.3503 307.948C58.2575 324.038 97.3005 317.257 132.801 300.141C151.679 291.038 169.826 279.661 188.086 268.778C205.634 258.32 224.838 247.509 244.368 249.373C284.865 253.243 297.647 307.355 317.516 340.455C337.605 373.918 363.759 402.911 394.699 421.881C427.164 441.785 465.255 450.326 502.84 445.122C511.909 443.866 520.904 441.744 529.787 438.811C530.911 438.44 530.735 436.319 529.597 436.694C491.628 449.233 451.355 446.155 415.918 430.586C381.168 415.318 351.575 387.497 328.484 353.876C317.267 337.541 308.308 319.71 299.602 301.294C291.305 283.737 281.91 266.271 267.042 255.829C234.972 233.307 198.389 260.401 167.655 278.648C130.61 300.646 91.9734 319.876 51.0903 313.874C32.0012 311.071 13.5969 302.928 -1.05535 288.752C-14.9028 275.355 -24.6655 257.363 -33.1117 238.759C-46.9324 208.312 -59.4736 173.689 -87.2043 158.081C-120.373 139.413 -155.347 161.8 -186.263 181.467C-204.347 192.97 -222.439 203.579 -242.364 208.609C-262.705 213.745 -283.296 213.925 -303.4 210.729C-323.801 207.487 -343.785 201.158 -362.717 192.425C-379.877 184.51 -396.902 175.082 -411.616 162.126C-417.778 156.698 -423.49 150.544 -427.926 143.06C-428.575 141.965 -430.04 143.331 -429.39 144.424L-429.389 144.429Z" fill="#0D509F"/>
<path d="M-435.873 157.308C-428.819 173.85 -415.821 185.177 -402.354 193.776C-385.591 204.482 -366.978 211.544 -348.001 215.623C-308.239 224.169 -265.504 222.016 -226.454 202.815C-207.581 193.534 -190.422 179.907 -172.442 168.33C-154.369 156.693 -134.371 146.101 -114.052 148.825C-76.7616 153.829 -60.7479 196.892 -48.2155 233.119C-41.8257 251.592 -35.0811 270.163 -24.6802 285.791C-13.7326 302.246 1.08204 313.992 18.2546 319.918C55.9028 332.913 95.3939 318.85 130.367 296.409C148.89 284.523 166.571 270.764 184.824 258.275C202.19 246.395 222.424 234.754 242.173 239.427C262.085 244.137 274.821 263.92 283.184 284.313C291.324 304.166 297.737 324.715 307.881 343.236C326.814 377.805 353.466 406.835 385.068 424.5C418.966 443.45 458.825 449.079 496.962 439.585C505.667 437.418 514.237 434.4 522.634 430.642C523.744 430.145 523.095 428.196 521.99 428.693C483.686 445.839 441.468 445.989 404.354 431.304C369.192 417.387 339.193 389.75 317.177 355.128C306.12 337.738 297.947 318.648 290.625 298.554C283.81 279.845 276.299 260.719 262.449 248.195C231.196 219.937 193.31 249.531 163.381 271.076C127.624 296.818 90.3295 323.139 48.3898 322.766C28.1172 322.587 8.02744 316.372 -7.89095 302.294C-22.4279 289.44 -32.0638 270.867 -39.6015 251.417C-52.4148 218.352 -60.9796 179.238 -87.6134 158.1C-101.252 147.275 -118.069 143.879 -134.797 148.028C-152.989 152.539 -169.877 163.947 -186.052 175.063C-203.763 187.235 -221.248 199.341 -240.638 206.782C-261.704 214.864 -283.597 218.428 -305.256 218.279C-326.649 218.131 -348.159 214.795 -368.34 207.707C-385.979 201.513 -403.58 192.752 -417.861 179.223C-424.494 172.94 -430.313 165.503 -434.19 156.412C-434.696 155.223 -436.387 156.111 -435.873 157.311L-435.873 157.308Z" fill="#0D509F"/>
<path d="M-442.25 170.419C-429.796 211.183 -385.862 225.243 -352.481 228.277C-310.457 232.097 -266.628 223.32 -227.453 200.31C-208.446 189.146 -191.259 174.004 -172.758 161.689C-153.83 149.093 -132.31 138.971 -111.423 145.826C-75.4007 157.642 -64.6829 206.142 -54.5215 243.681C-49.2005 263.335 -43.0431 283.11 -32.2629 299.214C-21.0489 315.97 -5.27143 326.8 12.6456 331.128C52.6713 340.797 92.2312 319.844 126.349 292.884C144.32 278.682 161.419 262.882 179.484 248.855C197.482 234.881 219.989 221.465 240.628 230.583C259.834 239.068 269.671 261.887 276.116 283.675C282.35 304.748 287.718 325.663 297.295 344.831C315.306 380.886 342.659 410.337 375.304 426.895C410.13 444.56 450.963 447.291 488.905 434.358C497.911 431.288 506.704 427.33 515.25 422.548C516.325 421.948 515.686 419.994 514.606 420.599C476.991 441.646 434.104 445.745 395.803 433.105C359.588 421.154 328.469 393.92 306.886 358.226C296.022 340.26 288.294 320.429 282.412 299.23C276.753 278.83 271.361 257.488 258.511 242.088C246.106 227.221 229.16 222.179 211.322 228.042C192.944 234.083 176.713 248.234 161.144 261.318C125.835 290.996 89.8007 324.523 46.3797 330.387C25.2469 333.241 3.28202 329.602 -14.0929 316.078C-29.7577 303.885 -39.603 284.727 -46.472 264.213C-58.5945 228.01 -63.2258 185.29 -88.5657 158.413C-100.857 145.375 -117.197 139.3 -134.264 142.103C-152.851 145.156 -170.112 156.941 -186.154 168.714C-204.578 182.235 -222.436 196.302 -242.441 206.028C-262.828 215.939 -284.173 222.274 -305.691 225.164C-328.473 228.225 -351.988 227.984 -374.048 222.6C-392.752 218.035 -411.732 209.703 -425.888 194.709C-432.41 187.799 -437.538 179.412 -440.563 169.509C-440.95 168.24 -442.636 169.139 -442.246 170.408L-442.25 170.419Z" fill="url(#paint4_linear_55_57)"/>
<path d="M-448.627 183.529C-440.29 222.832 -403.571 237.696 -372.399 240.197C-330.94 243.526 -287.154 231.82 -248.526 210.244C-229.196 199.444 -211.763 185.358 -194.098 170.985C-176.81 156.92 -157.895 141.973 -137.062 139.03C-91.5134 132.599 -73.7222 189.179 -65.5567 231.698C-57.4744 273.792 -48.4644 321.01 -10.8658 336.938C26.718 352.86 68.838 333.801 101.75 306.972C120.831 291.419 138.29 273.208 156.262 255.878C173.548 239.207 193.306 219.275 215.876 216.988C239.494 214.598 255.189 236.64 262.623 260.277C270.316 284.747 272.59 311.303 281.758 335.139C297.308 375.562 325.209 408.42 359.483 426.208C395.814 445.063 438.83 446.052 477.994 430.33C488.31 426.188 498.289 420.845 507.868 414.463C508.898 413.776 508.266 411.818 507.224 412.514C468.1 438.584 421.61 446.076 380.258 432.6C342.47 420.284 310.409 390.288 290.7 350.737C279.955 329.177 274.9 305.72 269.791 281.278C265.139 259.019 258.255 235.554 241.725 222.546C225.586 209.845 205.802 214.503 188.728 225.668C169.707 238.105 153.138 256.232 136.392 272.631C102.108 306.208 64.148 340.01 19.0885 340.385C-1.66337 340.557 -21.8963 332.832 -35.7386 314.991C-48.7396 298.236 -54.8256 275.629 -59.4301 253.516C-67.5339 214.593 -73.1647 165.832 -104.741 144.378C-139.393 120.835 -177.348 154.816 -206.928 178.987C-244.241 209.478 -285.935 229.708 -329.931 236.193C-365.561 241.446 -411.224 240.672 -435.969 207.536C-441.28 200.425 -444.953 191.992 -446.94 182.625C-447.218 181.312 -448.901 182.222 -448.624 183.524L-448.626 183.524L-448.627 183.529Z" fill="url(#paint5_linear_55_57)"/>
</g>
<defs>
<linearGradient id="paint0_linear_55_57" x1="-396.761" y1="205.213" x2="618.347" y2="344.343" gradientUnits="userSpaceOnUse">
<stop stop-color="#0D509F"/>
<stop offset="0.99" stop-color="#CEE873"/>
</linearGradient>
<linearGradient id="paint1_linear_55_57" x1="-401.904" y1="209.118" x2="609.32" y2="347.716" gradientUnits="userSpaceOnUse">
<stop stop-color="#0D509F"/>
<stop offset="0.99" stop-color="#CEE873"/>
</linearGradient>
<linearGradient id="paint2_linear_55_57" x1="-406.941" y1="212.897" x2="600.387" y2="350.961" gradientUnits="userSpaceOnUse">
<stop stop-color="#0D509F"/>
<stop offset="0.99" stop-color="#CEE873"/>
</linearGradient>
<linearGradient id="paint3_linear_55_57" x1="-412.045" y1="216.527" x2="591.378" y2="354.055" gradientUnits="userSpaceOnUse">
<stop stop-color="#0D509F"/>
<stop offset="0.99" stop-color="#CEE873"/>
</linearGradient>
<linearGradient id="paint4_linear_55_57" x1="-449.399" y1="221.692" x2="523.571" y2="355.047" gradientUnits="userSpaceOnUse">
<stop stop-color="#0D509F"/>
<stop offset="0.99" stop-color="#2E82FF"/>
</linearGradient>
<linearGradient id="paint5_linear_55_57" x1="-453.63" y1="219.428" x2="515.529" y2="352.261" gradientUnits="userSpaceOnUse">
<stop stop-color="#0D509F"/>
<stop offset="0.99" stop-color="#E9F2FD"/>
</linearGradient>
</defs>
</svg>
