<svg width="674" height="523" viewBox="0 0 674 523" fill="none" xmlns="http://www.w3.org/2000/svg">
<g opacity="0.3">
<path d="M1019.31 26.7268C1001.26 17.4471 981.912 22.8985 967.077 35.119C951.241 48.1598 941.709 68.279 935.029 89.5955C922.543 129.438 918.641 176.396 892.918 207.659C867.279 238.82 828.378 236.021 794.295 221.45C757.012 205.512 724.726 175.391 687.333 159.779C667.995 151.706 647.831 148.535 628.218 152.841C608.218 157.236 590.129 168.533 574.146 182.48C543.012 209.653 520.138 246.805 493.705 279.731C469.888 309.399 442.077 336.816 406.824 345.253C367.908 354.567 327.418 340.034 287.94 336.896C266.748 335.211 245.987 337.432 226.561 346.279C207.712 354.862 190.91 368.239 175.307 382.952C159.107 398.23 143.906 414.956 128.479 431.293C111.662 449.102 94.8429 466.908 78.026 484.717C69.6174 493.621 61.2091 502.526 52.8005 511.43C51.9594 512.32 50.815 510.571 51.6506 509.689C85.3909 473.965 118.967 438.008 152.891 402.529C181.53 372.577 213.131 342.683 252.801 335.862C293.264 328.904 334.48 345.008 375.246 346.063C395.154 346.578 414.475 342.764 432.187 333.159C449.577 323.729 464.8 309.848 478.599 294.496C506.22 263.768 528.223 226.631 556.506 196.694C583.715 167.893 617.683 144.804 656.698 149.251C695.293 153.649 729.415 181.49 763.514 202.817C798.643 224.787 845.41 243.974 879.931 217.499C912.618 192.435 918.728 141.504 930.01 100.154C940.268 62.5332 960.384 21.8811 997.844 19.8344C1005.38 19.4221 1012.84 21.123 1019.95 24.7778C1021.04 25.3387 1020.4 27.2901 1019.31 26.7268Z" fill="url(#paint0_linear_73_2)"/>
<path d="M1025.68 39.8372C1008.86 33.1085 991.273 39.1292 977.395 49.4344C961.774 61.0318 950.962 78.5388 942.89 98.0756C927.896 134.376 921.458 178.048 895.858 206.335C869.039 235.97 830.572 230.753 796.786 215.926C759.348 199.494 725.343 170.735 686.331 160.195C667.079 154.995 647.732 155.495 629.588 162.705C611.583 169.861 595.623 182.29 580.899 195.93C550.263 224.309 524.691 259.192 495.033 288.847C468.617 315.258 438.142 335.934 401.997 337.965C360.67 340.286 318.89 326.489 277.669 332.401C238.238 338.055 206.55 365.808 177.317 394.335C146.477 424.429 115.667 454.387 83.6578 482.776C75.8671 489.685 68.0389 496.533 60.1825 503.339C59.2735 504.127 58.1212 502.387 59.0324 501.599C92.1936 472.868 124.811 443.282 156.364 412.156C184.337 384.557 212.342 354.308 247.226 338.887C284.604 322.361 326.5 329.908 366.251 334.223C387.584 336.538 408.917 337.365 429.292 330.743C446.813 325.048 462.782 314.812 477.314 302.476C508.577 275.935 533.774 240.959 562.602 211.077C589.609 183.081 621.147 154.858 659.634 154.439C697.296 154.028 732.773 178.093 766.412 197.85C802.045 218.78 848.337 240.158 883.685 214.571C915.377 191.631 923.547 144.381 937.64 106.32C950.278 72.1898 972.288 38.5494 1006.33 35.0312C1013.05 34.3364 1019.77 35.2637 1026.33 37.8877C1027.45 38.3346 1026.8 40.2844 1025.69 39.8367L1025.68 39.8372Z" fill="url(#paint1_linear_73_2)"/>
<path d="M1032.29 53.0313C1015.77 48.5836 999.095 55.6253 985.637 65.3612C970.892 76.0262 959.589 91.2982 950.541 108.64C933.19 141.893 923.603 183.464 896.457 207.77C868.07 233.189 831.138 224.952 798.445 210.044C761.631 193.253 726.468 166.999 687.082 162.07C667.876 159.666 649.481 163.713 632.666 173.346C614.97 183.483 599.509 198.098 584.425 212.672C554.937 241.164 526.926 272.566 494.761 296.981C466.24 318.633 434.923 330.546 399.785 328.31C379.117 326.996 358.517 323.295 337.845 323.039C318.298 322.794 298.378 324.316 279.803 330.459C243.307 342.53 213.798 372.725 185.148 399.957C155.056 428.56 123.693 455.007 90.7199 478.937C83.0648 484.493 75.3406 489.921 67.5647 495.251C66.5981 495.913 65.4396 494.177 66.4147 493.511C99.8799 470.569 132.334 445.621 162.966 417.838C192.168 391.353 219.549 360.914 252.635 340.887C285.861 320.772 324.525 318.615 362.296 322.3C382.26 324.246 402.402 327.949 422.257 326.014C440.596 324.226 458.062 317.848 474.193 308.372C508.324 288.323 536.616 256.877 565.512 228.314C592.669 201.472 621.553 168.728 658.199 160.954C694.7 153.213 732.19 172.382 765.81 190.895C800.855 210.195 843.929 234.363 880.714 216.025C914.138 199.363 926.537 155.909 942.571 120.688C957.439 88.0266 979.645 57.513 1012.28 50.5642C1018.92 49.1505 1025.72 49.0955 1032.48 50.914C1033.62 51.2209 1033.44 53.3396 1032.29 53.0313Z" fill="url(#paint2_linear_73_2)"/>
<path d="M1038.66 66.142C1022.75 64.2526 1007.11 71.9998 994.126 81.1382C978.94 91.8329 966.624 106.527 956.165 123.281C937.314 153.477 923.791 191.351 894.996 210.332C863.308 231.222 826.026 217.031 793.225 200.82C757.748 183.285 721.173 161.206 682.675 165.153C643.571 169.163 615.609 203.312 587.046 230.296C558.84 256.946 529.275 283.381 496.207 301.486C481.228 309.69 465.317 315.747 448.688 318.42C431.065 321.255 413.419 319.584 395.553 317.03C375.569 314.171 355.825 311.962 336.003 314.381C316.664 316.742 297.555 322.133 280.311 331.988C246.949 351.053 219.441 381.564 190.274 407.761C161.522 433.589 130.575 455.903 97.969 474.664C90.3114 479.071 82.5642 483.267 74.7448 487.297C73.7048 487.833 72.9537 485.825 73.9893 485.29C108.076 467.734 140.742 446.625 171.075 421.587C201.426 396.535 228.62 366.412 259.972 342.991C290.32 320.321 325.526 309.633 362.501 311.186C381.461 311.981 400.345 316.432 419.3 317.641C438.372 318.857 457.228 315.879 474.989 309.051C509.996 295.595 540.558 269.653 569.33 243.82C584.893 229.849 599.715 214.836 615.026 200.5C628.357 188.017 642.494 175.916 658.766 169.021C692.152 154.874 729.275 166.598 762.301 182.729C797.228 199.788 835.862 226.088 873.675 217.31C910.259 208.818 927.965 168.881 946.734 135.439C964.402 103.96 987.698 75.1393 1020.06 65.8178C1026.17 64.0581 1032.45 63.2652 1038.85 64.025C1040.01 64.1625 1039.82 66.2774 1038.66 66.1423L1038.66 66.142Z" fill="url(#paint3_linear_73_2)"/>
<path d="M1045.28 79.2646C1029.98 80.1326 1015.39 88.1267 1002.64 96.9201C987.704 107.222 974.801 120.469 963.21 135.54C941.888 163.265 924.071 198.424 892.95 212.277C859.305 227.255 823.291 209.225 790.806 192.799C755.414 174.901 717.257 158.008 680.199 170.982C663.455 176.845 649.445 188.549 636.3 201.471C622.028 215.503 608.52 230.557 593.711 243.834C565.34 269.268 533.393 291.576 498.758 303.835C481.961 309.78 464.398 312.874 446.532 312.599C428.701 312.324 411.123 308.059 393.378 305.14C373.274 301.832 353.618 302.086 334.366 307.944C316.446 313.396 299.864 322.431 284.63 334.333C254.943 357.531 228.96 386.531 200.062 410.985C171.156 435.445 139.383 455.269 105.763 469.909C97.9817 473.298 90.0983 476.386 82.1337 479.208C81.0505 479.593 80.2888 477.589 81.3782 477.201C116.17 464.873 149.375 447.144 179.798 424.449C210.539 401.515 237.401 372.674 266.364 346.958C294.026 322.395 324.915 303.178 360.954 300.836C379.245 299.646 397.519 303.787 415.759 307.107C434.522 310.523 453.245 311.632 471.753 308.624C509.362 302.512 543.907 281.441 574.574 257.229C590.418 244.722 605.087 230.59 619.398 215.793C632.362 202.385 645.286 188.445 660.442 178.436C689.698 159.116 724.412 161.943 756.893 174.519C793.105 188.54 828.629 216.904 867.175 215.917C905.699 214.93 928.63 180.582 950.827 149.104C971.441 119.87 995.46 93.4787 1026.91 81.3611C1032.74 79.1168 1038.76 77.4828 1044.99 77.1303C1046.14 77.064 1046.44 79.2025 1045.28 79.267L1045.28 79.2646Z" fill="#0D509F"/>
<path d="M1051.66 92.3747C1036.11 96.4831 1021.52 105.413 1008.08 114.837C993.451 125.094 980.218 137.436 967.642 150.869C943.391 176.769 920.258 207.803 885.831 214.31C850.267 221.033 815.361 197.775 782.506 181.856C746.43 164.375 707.445 158.637 674.558 182.198C660.815 192.045 649.413 205.789 637.958 218.908C624.773 234.008 611.284 248.564 595.979 260.68C567.075 283.565 533.419 300.17 498.105 305.461C480.544 308.092 462.59 307.584 444.769 304.612C426.677 301.593 408.884 295.355 390.739 293.022C351.42 287.963 319.129 309.84 290.675 337.308C263.655 363.393 238.162 391.787 209.012 414.698C179.563 437.846 146.654 455.23 111.911 465.557C104.447 467.776 96.9019 469.646 89.2848 471.187C88.1554 471.416 87.867 469.278 88.9919 469.051C125.076 461.747 159.618 446.646 190.851 425.42C221.84 404.361 248.566 376.423 275.648 349.271C300.796 324.059 327.241 298.35 361.284 291.61C379.2 288.065 397.335 291.372 415.365 295.814C433.946 300.394 452.354 304.643 471.173 305.027C508.81 305.791 545.024 292.523 576.951 271.789C593.521 261.028 608.751 247.952 622.687 232.975C635.205 219.522 646.742 204.762 659.818 192.045C671.624 180.56 685.038 171.662 700.159 167.245C716.329 162.522 733.443 163.26 750.139 167.342C786.773 176.301 819.287 203.828 856.16 211.6C875.142 215.6 893.885 212.384 910.5 202.569C925.916 193.46 938.756 179.654 951.206 165.907C976.101 138.424 1001.61 112.78 1033.61 97.103C1039.36 94.2885 1045.24 91.8643 1051.37 90.246C1052.48 89.952 1052.76 92.0926 1051.66 92.3827L1051.66 92.3747Z" fill="#0D509F"/>
<path d="M1058.27 105.418C1026.98 121.461 998.327 142.898 970.901 166.31C943.301 189.869 914.493 214.948 877.777 213.497C841.661 212.068 809.215 185.809 775.309 172.069C756.647 164.505 736.597 161.739 717.865 166.622C701.812 170.809 687.436 180.678 675.452 193.39C663.176 206.41 652.844 221.798 641.446 235.857C629.233 250.922 615.844 264.309 600.493 274.794C570.516 295.272 535.336 305.919 499.729 304.795C481.357 304.214 462.984 300.581 444.916 295.27C427.227 290.071 409.652 282.91 391.541 281.632C352.523 278.88 325.181 309.77 299.69 338.592C274.442 367.141 248.71 395.727 218.8 417.529C189.188 439.113 155.74 453.978 120.717 460.261C112.77 461.687 104.744 462.621 96.6662 463.094C95.5168 463.16 95.2174 461.024 96.3733 460.957C132.152 458.861 166.924 447.271 198.197 428.646C230.775 409.243 258.547 381.358 284.911 352.141C308.338 326.18 330.899 294.492 363.025 283.27C398.15 270.997 434.57 292.445 469.963 299.249C507.822 306.526 545.58 301.77 579.782 284.565C596.585 276.111 612.208 264.775 625.845 250.612C638.919 237.038 650.049 221.209 661.912 206.212C682.746 179.87 708.068 160.894 740.488 162.103C777.529 163.484 810.115 189.703 844.906 203.671C864.401 211.499 884.437 213.782 903.826 208.027C920.879 202.964 936.005 192.478 950.236 180.994C965.678 168.535 980.416 154.932 996.081 142.836C1009.98 132.105 1024.52 122.437 1039.38 113.555C1045.34 109.99 1051.37 106.565 1057.51 103.416C1058.55 102.882 1059.31 104.89 1058.27 105.423L1058.27 105.418Z" fill="#0D509F"/>
<path d="M1064.84 118.397C1052.11 128.787 1038.4 137.554 1024.9 146.511C1008.83 157.174 992.945 168.214 976.833 178.795C945.895 199.115 912.469 217.802 874.849 210.988C836.893 204.11 804.7 172.814 767.285 163.495C749.28 159.009 730.749 160.823 714.656 169.757C699.974 177.907 688.083 191.144 677.902 205.77C667.694 220.432 658.56 236.145 647.708 250.156C636.246 264.953 623.022 277.364 607.799 286.478C576.29 305.346 539.465 310.075 503.552 303.169C485.221 299.644 467.169 293.418 449.404 286.375C431.136 279.133 412.515 270.529 393.355 270.7C354.296 271.045 331.943 310.625 308.645 340.716C285.346 370.807 259.505 399.252 229.317 419.714C198.73 440.446 163.727 453.149 127.64 455.255C119.726 455.717 111.776 455.611 103.811 454.993C102.654 454.904 102.849 452.788 104.001 452.876C141.136 455.761 178.105 446.504 210.851 428.555C244.192 410.279 272.508 382.18 297.745 351.233C309.487 336.835 320.139 321.288 331.671 306.672C342.191 293.338 354.057 281.096 368.642 274.257C402.617 258.327 438.829 281.452 472.677 292.723C510.456 305.305 549.137 308.739 585.59 294.869C602.803 288.318 618.925 278.221 632.573 264.494C645.52 251.471 655.976 235.577 666.303 219.667C684.095 192.252 704.234 165.773 735.028 160.12C771.701 153.387 805.369 178.673 838.786 195.611C857.643 205.169 876.839 211.339 896.928 210.142C915.437 209.038 932.802 202.175 949.193 193.25C966.973 183.566 983.764 171.674 1000.67 160.186C1015.62 150.028 1030.8 140.324 1045.66 130.009C1051.78 125.762 1057.86 121.418 1063.69 116.657C1064.62 115.902 1065.77 117.639 1064.84 118.397L1064.84 118.397Z" fill="#0D509F"/>
<path d="M1071.22 131.507C1060.16 144.737 1045.96 154.224 1032.19 163.098C1016.03 173.515 999.408 183.177 982.307 191.466C948.041 208.071 910.428 219.614 872.191 207.659C835.572 196.209 803.654 163.26 765.863 157.922C747.794 155.369 730.174 160.593 715.837 172.513C703.124 183.082 693.43 197.638 684.913 212.909C676.007 228.879 667.832 245.499 657.426 260.141C646.455 275.577 633.155 288.15 617.557 296.622C584.162 314.752 545.561 313.912 509.252 301.533C490.965 295.298 473.174 286.735 455.523 277.984C437.626 269.11 418.812 259.272 399.508 259.967C359.256 261.416 341.497 308.535 319.799 340.446C298.17 372.252 272.283 400.834 241.837 420.544C210.081 441.102 173.138 451.855 135.861 450.059C127.619 449.662 119.389 448.599 111.191 446.902C110.038 446.664 110.224 444.548 111.381 444.785C148.882 452.554 187.325 446.357 221.231 429.777C255.577 412.981 284.717 384.821 308.989 352.217C320.425 336.854 330.167 320.119 340.315 303.533C349.877 287.906 360.793 273.01 375.786 264.565C408.724 246.014 445.064 271.254 477.156 286.154C514.457 303.473 553.158 314.681 591.65 304.57C610.503 299.619 628.258 289.787 642.63 274.975C655.423 261.795 665.169 245.202 674.318 228.339C690.069 199.31 706.843 168.099 736.762 158.254C771.519 146.82 805.076 170.507 836.581 188.682C854.657 199.11 873.015 207.596 892.775 209.833C913.43 212.17 933.63 208.381 952.962 201.596C970.77 195.348 987.903 186.773 1004.51 177.32C1021 167.935 1037.45 158.094 1052.65 146.144C1058.84 141.276 1064.84 136.017 1070.06 129.762C1070.86 128.815 1072 130.57 1071.21 131.502L1071.22 131.507Z" fill="#0D509F"/>
<path d="M1077.75 144.429C1068.98 159.235 1055.49 169.414 1042.23 177.929C1025.56 188.64 1007.7 197.173 989.309 203.422C952.411 215.96 912.3 220.553 873.873 205.344C854.926 197.846 837.573 185.419 819.794 174.474C801.998 163.52 782.818 152.83 762.912 152.969C726.322 153.224 705.631 188.566 690.614 222.765C683.224 239.594 676.016 256.698 666.112 271.564C655.298 287.799 641.431 300.381 625.013 307.948C590.106 324.038 551.063 317.257 515.563 300.141C496.685 291.038 478.537 279.661 460.278 268.778C442.73 258.32 423.526 247.509 403.996 249.373C363.499 253.243 350.717 307.355 330.848 340.455C310.759 373.918 284.605 402.911 253.664 421.881C221.2 441.785 183.109 450.326 145.524 445.122C136.455 443.866 127.46 441.744 118.576 438.811C117.452 438.44 117.629 436.319 118.767 436.694C156.735 449.233 197.009 446.155 232.446 430.586C267.196 415.318 296.788 387.497 319.88 353.876C331.097 337.541 340.056 319.71 348.761 301.294C357.059 283.737 366.454 266.271 381.322 255.829C413.392 233.307 449.974 260.401 480.709 278.648C517.754 300.646 556.39 319.876 597.273 313.874C616.363 311.071 634.767 302.928 649.419 288.752C663.267 275.355 673.029 257.363 681.475 238.759C695.296 208.312 707.837 173.689 735.568 158.081C768.737 139.413 803.711 161.8 834.627 181.467C852.711 192.97 870.803 203.579 890.727 208.609C911.069 213.745 931.66 213.925 951.764 210.729C972.164 207.487 992.149 201.158 1011.08 192.425C1028.24 184.51 1045.27 175.082 1059.98 162.126C1066.14 156.698 1071.85 150.544 1076.29 143.06C1076.94 141.965 1078.4 143.331 1077.75 144.424L1077.75 144.429Z" fill="#0D509F"/>
<path d="M1084.24 157.308C1077.18 173.85 1064.19 185.177 1050.72 193.776C1033.96 204.482 1015.34 211.544 996.365 215.623C956.603 224.169 913.868 222.016 874.818 202.815C855.945 193.534 838.786 179.907 820.806 168.33C802.733 156.693 782.735 146.101 762.416 148.825C725.125 153.829 709.112 196.892 696.579 233.119C690.189 251.592 683.445 270.163 673.044 285.791C662.096 302.246 647.282 313.992 630.109 319.918C592.461 332.913 552.97 318.85 517.997 296.409C499.474 284.523 481.792 270.764 463.539 258.275C446.173 246.395 425.94 234.754 406.191 239.427C386.279 244.137 373.543 263.92 365.18 284.313C357.039 304.166 350.627 324.715 340.483 343.236C321.55 377.805 294.897 406.835 263.295 424.5C229.398 443.45 189.539 449.079 151.401 439.585C142.697 437.418 134.127 434.4 125.73 430.642C124.62 430.145 125.269 428.196 126.374 428.693C164.678 445.839 206.896 445.989 244.009 431.304C279.172 417.387 309.171 389.75 331.186 355.128C342.244 337.738 350.417 318.648 357.739 298.554C364.554 279.845 372.064 260.719 385.915 248.195C417.167 219.937 455.054 249.531 484.983 271.076C520.74 296.818 558.034 323.139 599.974 322.766C620.247 322.587 640.336 316.372 656.255 302.294C670.792 289.44 680.428 270.867 687.965 251.417C700.779 218.352 709.343 179.238 735.977 158.1C749.616 147.275 766.433 143.879 783.161 148.028C801.353 152.539 818.241 163.947 834.416 175.063C852.127 187.235 869.611 199.341 889.002 206.782C910.068 214.864 931.96 218.428 953.62 218.279C975.013 218.131 996.523 214.795 1016.7 207.707C1034.34 201.513 1051.94 192.752 1066.22 179.223C1072.86 172.94 1078.68 165.503 1082.55 156.412C1083.06 155.223 1084.75 156.111 1084.24 157.311L1084.24 157.308Z" fill="#0D509F"/>
<path d="M1090.61 170.419C1078.16 211.183 1034.23 225.243 1000.85 228.277C958.821 232.097 914.992 223.32 875.817 200.31C856.809 189.146 839.623 174.004 821.122 161.689C802.194 149.093 780.674 138.971 759.787 145.826C723.764 157.642 713.047 206.142 702.885 243.681C697.564 263.335 691.407 283.11 680.627 299.214C669.413 315.97 653.635 326.8 635.718 331.128C595.692 340.797 556.133 319.844 522.015 292.884C504.044 278.682 486.944 262.882 468.88 248.855C450.882 234.881 428.375 221.465 407.736 230.583C388.53 239.068 378.692 261.887 372.247 283.675C366.014 304.748 360.646 325.663 351.069 344.831C333.058 380.886 305.705 410.337 273.06 426.895C238.234 444.56 197.401 447.291 159.459 434.358C150.453 431.288 141.66 427.33 133.113 422.548C132.039 421.948 132.678 419.994 133.758 420.599C171.373 441.646 214.26 445.745 252.561 433.105C288.776 421.154 319.895 393.92 341.478 358.226C352.342 340.26 360.07 320.429 365.952 299.23C371.61 278.83 377.003 257.488 389.853 242.088C402.258 227.221 419.203 222.179 437.042 228.042C455.419 234.083 471.651 248.234 487.219 261.318C522.529 290.996 558.563 324.523 601.984 330.387C623.117 333.241 645.082 329.602 662.457 316.078C678.122 303.885 687.967 284.727 694.836 264.213C706.958 228.01 711.59 185.29 736.929 158.413C749.221 145.375 765.56 139.3 782.627 142.103C801.215 145.156 818.475 156.941 834.518 168.714C852.941 182.235 870.8 196.302 890.805 206.028C911.192 215.939 932.537 222.274 954.054 225.164C976.836 228.225 1000.35 227.984 1022.41 222.6C1041.12 218.035 1060.1 209.703 1074.25 194.709C1080.77 187.799 1085.9 179.412 1088.93 169.509C1089.31 168.24 1091 169.139 1090.61 170.408L1090.61 170.419Z" fill="url(#paint4_linear_73_2)"/>
<path d="M1096.99 183.529C1088.65 222.832 1051.93 237.696 1020.76 240.197C979.304 243.526 935.518 231.82 896.89 210.244C877.559 199.444 860.127 185.358 842.462 170.985C825.174 156.92 806.258 141.973 785.425 139.03C739.877 132.599 722.086 189.179 713.92 231.698C705.838 273.792 696.828 321.01 659.229 336.938C621.646 352.86 579.526 333.801 546.614 306.972C527.532 291.419 510.073 273.208 492.102 255.878C474.816 239.207 455.058 219.275 432.487 216.988C408.87 214.598 393.174 236.64 385.741 260.277C378.047 284.747 375.774 311.303 366.605 335.139C351.056 375.562 323.155 408.42 288.88 426.208C252.549 445.063 209.533 446.052 170.37 430.33C160.054 426.188 150.074 420.845 140.496 414.463C139.466 413.776 140.097 411.818 141.14 412.514C180.263 438.584 226.754 446.076 268.105 432.6C305.894 420.284 337.954 390.288 357.664 350.737C368.408 329.177 373.464 305.72 378.573 281.278C383.225 259.019 390.109 235.554 406.639 222.546C422.777 209.845 442.561 214.503 459.636 225.668C478.656 238.105 495.226 256.232 511.972 272.631C546.255 306.208 584.216 340.01 629.275 340.385C650.027 340.557 670.26 332.832 684.102 314.991C697.103 298.236 703.189 275.629 707.794 253.516C715.898 214.593 721.528 165.832 753.105 144.378C787.756 120.835 825.712 154.816 855.291 178.987C892.604 209.478 934.299 229.708 978.294 236.193C1013.92 241.446 1059.59 240.672 1084.33 207.536C1089.64 200.425 1093.32 191.992 1095.3 182.625C1095.58 181.312 1097.26 182.222 1096.99 183.524L1096.99 183.524L1096.99 183.529Z" fill="url(#paint5_linear_73_2)"/>
</g>
<defs>
<linearGradient id="paint0_linear_73_2" x1="1045.13" y1="205.213" x2="30.0165" y2="344.343" gradientUnits="userSpaceOnUse">
<stop stop-color="#0D509F"/>
<stop offset="0.99" stop-color="#CEE873"/>
</linearGradient>
<linearGradient id="paint1_linear_73_2" x1="1050.27" y1="209.118" x2="39.0436" y2="347.716" gradientUnits="userSpaceOnUse">
<stop stop-color="#0D509F"/>
<stop offset="0.99" stop-color="#CEE873"/>
</linearGradient>
<linearGradient id="paint2_linear_73_2" x1="1055.31" y1="212.897" x2="47.977" y2="350.961" gradientUnits="userSpaceOnUse">
<stop stop-color="#0D509F"/>
<stop offset="0.99" stop-color="#CEE873"/>
</linearGradient>
<linearGradient id="paint3_linear_73_2" x1="1060.41" y1="216.527" x2="56.9856" y2="354.055" gradientUnits="userSpaceOnUse">
<stop stop-color="#0D509F"/>
<stop offset="0.99" stop-color="#CEE873"/>
</linearGradient>
<linearGradient id="paint4_linear_73_2" x1="1097.76" y1="221.692" x2="124.793" y2="355.047" gradientUnits="userSpaceOnUse">
<stop stop-color="#0D509F"/>
<stop offset="0.99" stop-color="#2E82FF"/>
</linearGradient>
<linearGradient id="paint5_linear_73_2" x1="1101.99" y1="219.428" x2="132.835" y2="352.261" gradientUnits="userSpaceOnUse">
<stop stop-color="#0D509F"/>
<stop offset="0.99" stop-color="#E9F2FD"/>
</linearGradient>
</defs>
</svg>
