<svg width="1775" height="760" viewBox="0 0 1775 760" fill="none" xmlns="http://www.w3.org/2000/svg">
<g opacity="0.34">
<mask id="mask0_75_71" style="mask-type:alpha" maskUnits="userSpaceOnUse" x="0" y="0" width="1775" height="760">
<rect width="1775" height="760" rx="127" fill="url(#paint0_radial_75_71)"/>
<rect width="1775" height="760" rx="127" fill="url(#paint1_radial_75_71)" fill-opacity="0.2"/>
</mask>
<g mask="url(#mask0_75_71)">
<g opacity="0.6">
<path d="M-188.341 682.037C-160.429 586.756 -72.114 529.9 7.35736 527.286C52.8794 525.79 96.1152 539.175 134.713 559.837C171.756 579.667 205.936 605.371 245.223 620.673C277.898 633.391 314.274 637.42 350.55 621.109C380.036 607.836 405.111 583.299 426.492 555.814C476.451 491.576 510.53 414.169 571.141 360.616C604.897 330.802 643.86 307.984 683.787 298.527C703.336 293.896 723.088 292.46 741.965 295.099C749.234 296.113 755.668 297.59 761.084 302.757C779.83 320.718 780.743 359.699 783.506 387.122C786.52 417.111 787.506 452.191 801.576 476.887C815.754 501.781 841.831 497.352 865.939 483.203C890.047 469.054 911.249 449.415 931.65 429.348C946.906 414.345 961.653 398.622 976.09 382.575C992.752 364.041 1008.29 343.487 1026.85 327.473C1058.15 300.462 1094.33 284.811 1129.03 266.923C1145.19 258.592 1161.29 249.767 1176.65 239.118C1190.06 229.828 1202.01 217.587 1215.66 208.929C1257.7 182.296 1303.97 193.841 1347.52 179.889C1372.54 171.878 1395.49 155.996 1415.12 134.741C1442.84 104.726 1458.88 63.6339 1487.94 35.5763C1535.17 -10.0254 1580.56 28.2044 1617.92 53.1817C1634.43 64.2136 1652.56 76.0019 1673.29 76.6121C1693.97 77.2252 1715.48 62.1565 1735.54 53.8959C1757.61 44.811 1780.33 35.3214 1798.78 16.5258C1823.04 -8.17268 1831.87 -40.6379 1839.94 -73.5348C1844.08 -90.4434 1852.27 -104.456 1868.34 -105.435C1882.74 -106.321 1896.5 -100.494 1909.87 -97.156C1942.22 -89.0629 1974.71 -92.3514 2000 -127.9C2020.04 -156.075 2027.11 -189.102 2040.52 -220.403C2053.22 -250.067 2071.24 -276.909 2092.58 -299.963C2138.44 -349.51 2196 -381.315 2251.27 -410.658C2307.73 -440.64 2365.5 -468.264 2418.9 -507.091C2443.1 -524.689 2466.11 -544.729 2486.7 -568.047C2488.29 -569.855 2486.12 -572.18 2484.53 -570.372C2392.33 -465.97 2263.89 -432.688 2157.04 -358.906C2108.74 -325.558 2063.88 -281.853 2038.43 -223.328C2024.34 -190.937 2017.28 -155.911 1995.66 -127.231C1981.78 -108.819 1963.95 -97.8371 1944.22 -96.6022C1927.76 -95.5792 1912.32 -100.394 1897.07 -104.471C1885.9 -107.46 1873.03 -111.744 1860.71 -107.705C1848.4 -103.688 1841.58 -91.0773 1837.85 -77.9425C1832.44 -58.7976 1829.36 -40.1339 1820.85 -21.6787C1813.63 -6.02057 1803.79 8.18951 1791.35 19.2023C1770.31 37.8106 1745.14 45.8579 1721.39 56.0679C1709.94 60.9821 1698.36 68.7892 1686.62 71.6551C1676.08 74.2274 1665.69 72.7362 1656.16 69.5335C1614.62 55.5481 1584.61 11.7893 1538.33 9.91156C1516.65 9.02822 1496.27 21.1808 1479.51 39.7095C1466.07 54.5698 1456.37 72.0149 1445.57 89.1205C1434.03 107.371 1421.04 124.806 1406.02 139.585C1383.56 161.707 1357.58 175.22 1330.1 180.75C1308.06 185.185 1286.22 185.077 1264.23 188.381C1243.53 191.487 1222.87 198.32 1204.45 212.851C1189.61 224.567 1175.61 236.472 1159.72 246.118C1142.06 256.861 1123.82 265.808 1105.66 274.926C1073.77 290.972 1041.21 307.831 1014.03 335.004C996.745 352.285 981.277 372.315 964.62 390.465C949.651 406.774 934.335 422.687 918.382 437.679C893.838 460.752 845.061 507.876 814.949 486.94C793.61 472.113 791.466 432.5 788.577 405.348C785.321 374.689 784.901 339.711 772.392 313.163C767.855 303.54 761.166 295.763 751.486 293.006C721.057 284.379 683.741 292.252 652.149 305.143C616.952 319.514 583.521 342.992 554.453 371.867C526.752 399.38 504.344 432.318 482.9 465.917C439.913 533.29 392.563 616.942 316.359 627.401C271.15 633.609 230.779 612.087 194.437 590.684C159.12 569.876 124.95 547.32 85.6273 534.89C15.8117 512.824 -66.7943 521.684 -131.704 583.946C-159.096 610.223 -180.39 643.824 -191.423 681.477C-192.114 683.82 -189.032 684.38 -188.341 682.037Z" fill="#007AFF"/>
<path d="M-160.504 695.378C-134.79 610.376 -58.8238 553.858 13.8278 543.431C56.8507 537.261 98.9365 544.874 137.082 560.095C172.707 574.309 204.768 595.97 239.269 612.575C269.274 627.02 302.15 638.381 337.396 633.7C370.644 629.283 401.785 610.261 428.3 583.479C486.348 524.843 521.487 443.191 582.893 388.03C613.042 360.949 647.082 339.666 682.497 327.343C700.464 321.094 718.791 317.251 736.858 316.392C748.784 315.823 763.054 315.104 773.869 319.82C794.862 328.969 799.552 362.281 803.368 385.521C809.979 425.794 811.92 510.695 865.954 495.771C882.876 491.097 899.112 479.558 913.771 467.797C939.149 447.446 962.496 423.247 984.935 398.615C1000.21 381.862 1014.52 363.926 1029.87 347.301C1045.56 330.317 1063.61 316.82 1082.21 305.201C1117.7 283.043 1155.41 267.235 1189.9 242.313C1207.15 229.859 1222.12 214.088 1241.11 205.761C1258.04 198.338 1275.5 195.86 1292.72 194.028C1316.52 191.488 1340.48 189.716 1364.14 180.601C1389.16 170.955 1411.81 153.356 1430.98 131.185C1455.79 102.482 1471.83 63.3617 1501.78 40.8478C1546.02 7.58218 1587.88 42.6107 1621.77 64.2722C1637.48 74.3162 1654.38 84.7165 1673.55 86.373C1693.06 88.0525 1711.29 75.943 1730.29 68.3586C1751.17 60.0185 1772.83 52.4845 1791.74 37.4151C1812.32 21.0021 1826.16 -2.78996 1834.85 -28.6291C1842.27 -50.659 1844.58 -82.4415 1870.17 -86.0008C1887.24 -88.3835 1903.9 -81.4432 1920.01 -78.7562C1937.57 -75.834 1956.43 -75.6021 1974.28 -85.3635C1997.91 -98.2945 2013.76 -124.943 2025.3 -150.674C2039.61 -182.592 2049.41 -214.061 2069.34 -243.139C2086.04 -267.485 2106.15 -288.665 2127.74 -307.095C2221.41 -387.061 2333.9 -420.58 2431.62 -491.138C2453.7 -507.075 2474.81 -524.94 2494.18 -545.385C2495.83 -547.119 2493.65 -549.446 2492.01 -547.71C2404.5 -455.36 2288.71 -418.282 2188.13 -354.947C2142.61 -326.275 2097.77 -291.122 2065.34 -242.779C2046.53 -214.726 2036.98 -184.91 2023.48 -154.228C2010.41 -124.516 1991.6 -93.5966 1962.54 -83.9815C1942.21 -77.2533 1922.28 -81.8618 1903.39 -85.9479C1890.45 -88.7463 1874.95 -93.4955 1860.98 -87.0953C1843.25 -78.9754 1839.9 -56.4996 1834.82 -38.8924C1825.49 -6.6079 1808.97 22.4766 1782.16 40.3552C1761.15 54.3757 1737.97 60.931 1715.85 70.6444C1705.36 75.2483 1695.42 81.3824 1684.49 82.6184C1673.56 83.8544 1663.71 81.3995 1654.32 77.6582C1616.91 62.8018 1587.37 26.2773 1545.17 23.3756C1487.27 19.3981 1460.35 95.4726 1422.48 135.882C1400.33 159.518 1374.3 175.492 1346.21 182.624C1318.45 189.677 1290.84 188.558 1263.1 194.974C1248.13 198.442 1233.28 204.376 1219.72 214.202C1202.94 226.356 1187.76 240.569 1170.29 251.537C1135.54 273.343 1098.59 288.866 1064.64 312.915C1029.88 337.533 1003.66 374.036 973.893 405.957C951.483 429.993 928.024 453.762 902.244 472.556C878.19 490.091 846.144 505.93 828.778 478.858C814.849 457.142 812.69 425.199 808.672 398.162C804.99 373.411 801.924 343.656 787.074 325.546C777.596 313.975 763.971 313.084 749.618 312.662C717.801 311.725 684.851 320.468 653.781 335.679C622.351 351.067 592.627 372.93 566.364 399.413C537.835 428.169 514.679 462.735 491.441 496.763C467.585 531.689 443.069 567.837 411.741 594.613C376.269 624.921 335.605 636.009 296.451 628.712C258.006 621.544 224.211 600.847 190.576 582.289C157.094 563.81 122.671 547.756 84.4077 541.158C18.4426 529.793 -54.9803 547.216 -111.252 605.856C-135.039 630.652 -153.406 661.166 -163.602 694.879C-164.314 697.218 -161.232 697.778 -160.521 695.439L-160.504 695.378Z" fill="#007AFF"/>
<path d="M-132.669 708.731C-107.779 628.989 -37.8312 573.629 30.9042 559.638C71.8802 551.292 112.519 555.534 149.983 567.178C187.2 578.74 220.568 598.938 255.827 615.003C286.21 628.839 318.963 640.216 354.155 636.868C387.722 633.672 419.771 616.171 447.496 590.261C505.087 536.44 542.22 459.819 602.063 408.53C631.978 382.891 665.35 362.817 699.883 350.729C717.568 344.531 735.564 340.513 753.389 339.149C766.092 338.172 780.638 337.107 792.378 341.224C813.533 348.638 820.133 378.715 825.106 401.092C833.933 440.808 840.03 515.159 892.717 496.972C909.58 491.149 925.554 479.14 940.084 466.934C964.804 446.182 987.574 422.006 1009.5 397.37C1024.34 380.692 1038.17 362.488 1053.69 346.677C1069.22 330.865 1086.34 318.247 1104.04 306.91C1138.07 285.128 1174.03 268.196 1206.65 242.87C1222.65 230.444 1236.57 216.708 1254.69 209.22C1271.33 202.346 1288.4 199.963 1305.27 197.914C1328.54 195.084 1352 192.635 1375.02 183.442C1399.47 173.667 1421.67 156.549 1440.61 135.015C1464.46 107.877 1480.62 71.0406 1510.41 51.4664C1554.76 22.3371 1596.11 58.003 1630.22 78.1814C1645.65 87.3044 1662.39 96.2819 1681.09 96.5731C1699.78 96.8642 1720.83 84.1793 1739.91 76.9822C1760.48 69.2118 1781.63 61.1247 1799.65 45.241C1819.91 27.3754 1832.84 2.06271 1841.01 -24.2928C1848.09 -47.1009 1855.56 -65.9877 1878.6 -67.2347C1896.43 -68.2016 1913.31 -62.4978 1930.75 -61.2583C1948.18 -60.0225 1966.38 -62.378 1983.11 -73.3793C2007.27 -89.2841 2023.14 -118.64 2035.14 -145.989C2048.24 -175.862 2060.36 -203.66 2079.96 -229.755C2097.69 -253.352 2118.39 -273.862 2140.36 -291.891C2233.21 -368.091 2342.02 -403.763 2438.61 -470.92C2460.66 -486.248 2481.9 -503.284 2501.68 -522.695C2503.38 -524.357 2501.19 -526.672 2499.51 -525.021C2411.51 -438.668 2300.01 -400.517 2201.26 -339.01C2155.17 -310.301 2109.54 -275.688 2075.1 -228.414C2057.22 -203.861 2045.41 -177.616 2033.37 -149.673C2020.14 -118.955 2001.86 -85.0109 1972.75 -71.3887C1952.83 -62.0674 1932.45 -64.1468 1913.25 -67.1774C1899.1 -69.4167 1883.58 -73.7728 1868.53 -69.1801C1853.49 -64.5874 1845.51 -50.3329 1840.75 -34.5081C1830.88 -1.69511 1817.24 28.898 1790.05 48.7907C1769.82 63.5808 1747 70.3026 1725.16 78.9305C1714.51 83.134 1703.79 89.5737 1692.91 91.8677C1683.02 93.9442 1673.32 92.7441 1664.25 90.0588C1625.14 78.4858 1596.25 42.8095 1554.69 37.3514C1535.93 34.8889 1516.87 41.0533 1500.06 55.1351C1472.73 78.0341 1456.78 113.809 1431.91 139.853C1409.5 163.326 1383.29 178.922 1355.16 186.252C1328.26 193.257 1301.42 192.918 1274.54 199.285C1260.54 202.598 1246.62 207.959 1233.76 216.682C1217.75 227.545 1203.42 241.899 1187.29 252.804C1153.72 275.491 1117.85 292.04 1084.79 315.983C1051.61 340.006 1026.66 373.94 998.407 404.971C976.453 429.078 953.548 452.871 928.379 472.198C905.798 489.54 873.843 508.427 854.616 485.173C839.498 466.899 835.98 436.857 830.906 412.198C826.148 389.093 821.544 361.386 806.014 345.659C796.233 335.747 783.158 335.174 769.522 334.971C737.308 334.512 704.011 343.307 672.508 358.324C641.005 373.341 611.699 394.04 585.256 419.504C556.613 447.076 532.869 480.334 508.758 512.834C484.307 545.797 458.825 579.353 427.131 603.262C390.177 631.138 349.282 638.616 310.545 630.245C273.099 622.158 239.735 602.87 205.818 586.217C172.179 569.691 137.082 556.687 98.9496 552.862C35.734 546.525 -32.7456 566.611 -85.1724 622.19C-107.96 646.349 -125.624 675.763 -135.764 708.22C-136.496 710.555 -133.411 711.103 -132.682 708.78L-132.669 708.731Z" fill="#007AFF"/>
<path d="M-104.831 722.074C-79.9945 645.033 -13.1642 591.14 53.4136 575.145C92.9537 565.643 132.601 567.952 169.453 577.21C205.658 586.311 238.496 603.534 272.573 617.939C302.277 630.488 333.666 641.323 367.381 640.034C399.976 638.785 432.133 624.987 460.676 601.861C519.247 554.407 558.361 481.778 616.146 432.993C670.608 387.006 744.673 351.948 807.084 361.861C829.413 365.409 838.93 390.492 845.579 412.163C857.072 449.601 865.617 516.889 915.62 499.353C931.713 493.71 946.916 482.29 960.786 470.616C984.167 450.925 1005.68 427.992 1026.38 404.603C1040.56 388.573 1053.82 371.378 1068.26 355.676C1082.7 339.974 1098.49 327.165 1115.05 315.533C1147.16 293.004 1181.27 275.405 1212.76 251.395C1229.43 238.694 1244.1 223.406 1262.65 215.011C1278.8 207.703 1295.51 204.769 1312.02 202.411C1334.7 199.168 1357.51 196.677 1380.01 188.438C1404 179.653 1426.22 164.291 1445.46 144.09C1469.55 118.799 1485.97 83.3538 1514.94 64.768C1559.28 36.3292 1600.49 70.4849 1635.25 89.8232C1650.76 98.4491 1667.61 106.743 1686.2 106.529C1704.8 106.316 1726.11 94.2423 1745.07 87.3933C1765.35 80.0564 1786.13 71.9528 1803.78 56.2467C1824.62 37.7044 1836.48 12.3776 1845.68 -14.3801C1853.24 -36.396 1866.06 -47.6859 1885.75 -48.4423C1903.32 -49.1117 1920.11 -44.8823 1937.57 -44.7908C1955.92 -44.703 1974.76 -48.9649 1991.58 -61.6501C2015.17 -79.449 2031.16 -109.588 2043.61 -137.252C2068.83 -193.338 2104.92 -237.87 2150.42 -274.475C2242.2 -348.297 2348.13 -385.952 2443.96 -449.639C2466.45 -464.581 2488.3 -481.034 2508.85 -499.742C2510.59 -501.319 2509.11 -504.311 2507.36 -502.723C2418.87 -422.189 2311.46 -383.077 2214.43 -323.151C2169.05 -295.119 2124.15 -262.086 2088.26 -217.814C2070.72 -196.191 2055.77 -172.116 2044.21 -146.274C2030.28 -115.17 2013.66 -80.0171 1985.84 -61.6068C1965.93 -48.4332 1944.28 -47.4322 1923.79 -49.2001C1908.28 -50.5378 1892.2 -54.4583 1876.05 -50.9603C1862.12 -47.9555 1851.69 -37.7652 1845.43 -22.7008C1838.92 -7.06589 1834.67 8.8382 1826.06 23.6691C1818.39 36.9047 1808.63 48.5588 1797.17 57.5767C1777.61 72.9738 1755.2 79.9767 1733.61 87.8418C1711.96 95.7238 1693.23 106.067 1671.67 101.111C1631.58 91.8794 1602.29 56.7824 1560.86 50.889C1542.46 48.2733 1523.54 53.4779 1506.6 66.7053C1480.28 87.2548 1464.4 120.485 1440.66 144.51C1418.3 167.136 1392.37 182.194 1364.74 189.588C1338.54 196.593 1312.33 197.084 1286.14 203.449C1271.99 206.888 1257.9 212.294 1244.89 221.145C1228.35 232.399 1213.53 247.302 1197 258.813C1164.96 281.098 1130.93 298.623 1099.68 322.778C1068.78 346.665 1045.04 379.182 1018.38 408.853C997.33 432.267 975.359 455.348 951.22 474.248C929.124 491.551 898.198 510.292 878.391 488.927C863.239 472.591 858.477 445.111 852.136 422.448C846.215 401.318 839.619 376.549 822.963 364.351C810.107 354.942 791.681 356.619 775.934 357.784C744.586 360.092 712.741 369.982 682.524 385.105C652.653 400.06 624.078 420.162 598.469 444.602C570.95 470.869 547.36 501.98 522.945 531.868C497.921 562.501 471.324 593.015 439.334 613.238C402.316 636.64 362.765 640.499 325.742 632.043C289.886 623.849 257.355 606.605 223.939 592.23C191.412 578.234 157.324 567.983 121.044 565.852C58.6144 562.176 -8.22128 583.649 -59.1292 638.582C-80.8968 662.07 -97.8273 690.351 -107.888 721.544C-108.641 723.875 -105.556 724.423 -104.806 722.104L-104.831 722.074Z" fill="#007AFF"/>
<path d="M-76.9941 735.415C-52.9433 663.207 8.36129 611.046 70.9538 592.229C110.882 580.227 151.464 580.366 189.42 587.752C224.541 594.584 256.836 608.921 289.845 621.559C346.888 643.413 408.113 655.745 469.903 614.824C529.01 575.68 570.017 508.625 624.373 461.826C680.199 413.759 749.182 382.765 814.028 383.12C827.786 383.191 839.219 385.269 848.782 395.474C856.024 403.198 861.046 413.344 865.39 423.611C880.2 458.633 891.052 519.384 939.149 501.565C954.619 495.834 969.205 484.788 982.54 473.426C1004.74 454.507 1025.17 432.539 1044.81 410.122C1058.56 394.435 1071.45 377.761 1085.28 362.193C1099.36 346.337 1115.08 332.81 1131.45 320.593C1162.47 297.444 1195.45 278.756 1225.97 254.533C1241.57 242.162 1255.39 228.011 1272.87 219.832C1288.04 212.741 1303.78 209.476 1319.36 206.886C1342.39 203.068 1365.55 200.333 1388.4 192.107C1412.19 183.54 1434.38 168.941 1453.81 149.375C1477.86 125.14 1494.85 90.8452 1524.5 75.1198C1567.95 52.0573 1607.62 84.6938 1642.09 102.316C1657.86 110.375 1675.06 117.748 1693.77 116.302C1703.12 115.572 1711.66 111.804 1720.8 108.261C1731.42 104.155 1742.15 100.746 1752.83 96.983C1772.9 89.9147 1793.14 81.3172 1810.24 65.243C1818.66 57.3345 1825.97 47.9974 1832.12 37.7834C1840.13 24.4697 1844.45 10.0486 1851.16 -3.79781C1870.78 -44.3271 1918.04 -26.4512 1947.27 -28.8881C1965.89 -30.44 1984.56 -36.9688 2000.75 -50.8831C2023.28 -70.2673 2038.5 -99.7408 2051.84 -126.961C2077.8 -179.958 2117.06 -222.713 2160.65 -257.144C2252.1 -329.341 2356.24 -368.777 2451.9 -430.104C2474.05 -444.302 2495.7 -459.741 2516.35 -477.128C2518.14 -478.632 2516.66 -481.625 2514.86 -480.11C2425.44 -404.835 2320.93 -364.99 2225.11 -305.779C2179.81 -277.783 2135.08 -245.206 2098.11 -202.369C2080.74 -182.25 2065.33 -159.922 2052.84 -135.859C2036.97 -105.25 2021.88 -71.0071 1994.89 -50.3239C1957.52 -21.692 1921.57 -39.1477 1883.3 -32.5622C1870.15 -30.2963 1858.46 -23.1111 1850.6 -9.39888C1843.44 3.08587 1839.84 17.3826 1832.93 30.1045C1825.23 44.2696 1815.41 57.0117 1803.53 66.8862C1784.53 82.6798 1762.47 90.0134 1741.11 97.3081C1719.75 104.603 1699.13 115.588 1677.64 111.591C1637.59 104.146 1607.94 70.8885 1567.43 64.483C1549.59 61.6624 1531 65.7 1514.03 77.6545C1487.2 96.5658 1470.71 129.288 1446.47 152.056C1423.93 173.218 1398.15 186.718 1371.17 193.694C1344.19 200.67 1319.73 201.481 1294.11 208.46C1280.85 212.074 1267.71 217.473 1255.54 225.877C1239.89 236.665 1225.8 250.958 1210.32 262.289C1179.88 284.559 1147.66 302.911 1117.99 326.842C1087.35 351.557 1063.58 384.311 1036.9 414.273C1016.9 436.741 996.014 458.841 973.037 477.019C951.512 494.041 922.139 511.85 901.941 492.832C886.785 478.566 880.667 453.743 872.996 433.319C865.324 412.894 856.769 391.746 838.759 383.203C822.368 375.415 799.758 379.081 781.473 381.844C750.091 386.575 718.608 397.772 688.695 413.73C660.455 428.79 633.497 448.124 609.044 471.38C582.442 496.675 558.795 525.743 533.752 553.023C508.709 580.302 479.273 608.624 446.481 624.353C410.28 641.713 373.26 641.787 338.642 633.397C305.036 625.254 273.889 610.448 241.664 598.669C209.723 586.992 176.221 579.304 141.181 578.944C80.1905 578.306 15.7584 601.264 -33.1157 654.956C-53.8706 677.758 -70.0912 704.915 -80.0455 734.822C-80.8185 737.15 -77.7335 737.698 -76.9637 735.382L-76.9941 735.415Z" fill="#007AFF"/>
<path d="M-49.1564 748.756C-25.6936 680.521 31.2399 630.084 90.4183 609.292C163.601 583.576 232.491 600.077 297.819 622.529C355.502 642.351 416.915 659.705 480.625 624.939C540.037 592.513 583.664 531.089 636.485 486.568C689.306 442.047 758.008 410.286 821.676 405.784C837.563 404.657 853.355 403.768 866.031 413.285C874.196 419.412 880.299 428.374 885.556 437.68C903.87 470.156 917.661 522.731 964.019 503.317C1002.71 487.113 1037.35 445.822 1066.14 412.319C1093.2 380.841 1117.62 349.431 1149.51 324.266C1178.32 301.522 1208.85 282.326 1237.4 259.034C1252.86 246.408 1266.69 232.386 1284.16 224.154C1298.97 217.179 1314.34 213.743 1329.57 210.935C1352.12 206.787 1374.8 203.632 1397.15 195.674C1420.82 187.251 1443.1 173.282 1462.75 154.23C1486.1 131.568 1503.26 100.042 1532.26 86.8451C1575.86 67.0072 1614.87 99.1012 1650.21 115.271C1665.67 122.352 1682.56 128.325 1700.57 125.985C1709.87 124.786 1718.85 120.651 1728 117.505C1738.94 113.738 1749.94 110.507 1760.87 106.688C1780.02 99.9896 1799.12 91.1971 1815.31 75.7745C1824.34 67.1846 1832.06 56.9646 1838.54 45.8649C1845.56 33.852 1849.57 19.6562 1857.68 8.44447C1869.63 -8.05509 1887.2 -10.9493 1903.27 -11.5573C1920.97 -12.2146 1938.42 -10.6412 1956.34 -13.6239C1975.59 -16.8272 1994.33 -25.4806 2010.25 -40.8222C2031.39 -61.177 2045.51 -89.0344 2059.98 -115.014C2088.39 -166.069 2128.83 -207.253 2172.37 -240.862C2263.08 -310.878 2364.89 -351.903 2459.91 -410.507C2481.72 -423.961 2503.16 -438.403 2523.84 -454.453C2525.68 -455.884 2524.19 -458.865 2522.35 -457.434C2432.21 -387.483 2330.48 -346.917 2235.95 -288.454C2191.17 -260.76 2147.08 -228.962 2109.41 -188.094C2091.45 -168.62 2075.14 -147.094 2061.41 -123.743C2044.2 -94.466 2029.59 -61.7973 2004.3 -39.6926C1968.23 -8.1757 1930.53 -19.5051 1892.01 -14.345C1878.54 -12.5357 1865.14 -7.04304 1855.52 6.10879C1848.56 15.6491 1844.97 27.3262 1839.48 37.7732C1832.08 51.8386 1822.74 64.8101 1811.34 75.0922C1792.65 91.9642 1770.51 99.9751 1748.89 107.004C1727.75 113.866 1705.94 124.865 1684.87 122.261C1644.78 117.315 1614.6 85.7644 1575.22 78.4389C1557.55 75.15 1538.93 77.8904 1521.53 88.8351C1494.81 105.654 1477.88 136.852 1453.86 158.089C1431.69 177.692 1406.74 190.115 1380.81 197.064C1355.24 203.901 1329.5 205.655 1303.97 213.074C1291.14 216.802 1278.42 222.216 1266.64 230.382C1251.68 240.745 1238.18 254.56 1223.58 265.794C1194.13 288.436 1163.09 307.923 1134.53 332.325C1106.49 356.296 1084.29 386.676 1059.66 414.977C1039.98 437.591 1019.41 459.864 996.754 478.37C975.973 495.348 947.77 513.574 926.505 498.147C910.447 486.493 902.76 463.547 893.537 445.18C884.314 426.814 873.773 409.308 855.477 403.527C835.473 397.205 809.607 402.376 788.272 406.797C757.642 413.148 727.144 424.767 698.009 440.598C668.874 456.429 643.66 474.917 619.173 497.578C592.714 522.055 568.363 549.486 542.081 574.225C514.71 599.981 484.578 623.087 451.447 633.997C416.075 645.638 381.124 642.648 348.184 634.268C316.676 626.251 286.785 613.719 255.62 604.703C224.455 595.687 189.487 590.622 154.738 592.797C97.4473 596.374 38.0791 621.02 -6.93808 671.244C-26.769 693.37 -42.347 719.492 -52.2143 748.188C-53.0045 750.499 -49.9196 751.047 -49.1325 748.748L-49.1564 748.756Z" fill="#007AFF"/>
<path d="M-21.3182 762.097C2.15539 696.038 56.8212 646.993 114.08 625.122C181.655 599.308 248.433 608.557 310.594 626.418C367.745 642.831 427.439 661.253 490.391 633.959C548.981 608.558 594.922 554.192 646.001 512.399C699.972 468.253 762.918 439.206 824.947 430.032C843.721 427.255 865.419 423.411 882.164 431.571C890.817 435.791 897.875 442.752 904.035 450.535C926.369 478.766 942.251 525.213 986.628 506.039C1023.25 490.213 1055.86 451.522 1083.15 419.548C1108.33 390.03 1130.97 359.435 1159.76 334.36C1187.4 310.29 1217.02 289.917 1245.1 266.668C1259.24 254.965 1272.37 241.239 1287.91 232.4C1302.57 224.054 1318.13 219.618 1333.54 216.256C1356.16 211.339 1378.87 208.126 1401.36 200.82C1425 193.134 1447.71 180.624 1467.98 162.669C1491.01 142.263 1508.22 113.227 1535.61 100.684C1579.72 80.4906 1619.33 111.594 1655.77 126.8C1671.42 133.329 1688.42 138.567 1706.38 135.732C1714.92 134.381 1723.33 130.794 1731.77 128.121C1743.26 124.481 1754.82 121.312 1766.28 117.398C1785.6 110.795 1804.69 101.719 1820.91 86.0852C1830.04 77.2832 1837.88 66.8651 1844.5 55.6115C1850.78 44.9237 1855.03 32.9328 1863.55 23.97C1877.44 9.37015 1896.06 7.44769 1912.53 6.41252C1930.27 5.3031 1947.98 5.46561 1965.88 0.995328C1983.78 -3.47499 2001.07 -12.6993 2015.89 -27.0908C2037.78 -48.3457 2052.38 -76.8319 2068.81 -102.953C2099.54 -151.796 2140.5 -191.389 2183.92 -224.291C2273.29 -292.006 2372.31 -334.407 2466.21 -389.787C2488.3 -402.82 2510.1 -416.607 2531.36 -431.759C2533.25 -433.104 2531.75 -436.087 2529.87 -434.741C2438.73 -369.781 2339.01 -328.452 2245.39 -270.22C2200.59 -242.351 2156.58 -210.615 2118.16 -170.651C2100.45 -152.219 2084.07 -132.049 2069.77 -110.183C2051.39 -82.0762 2036.21 -50.1012 2011.78 -27.5826C1976.09 5.3193 1937.74 -1.66576 1898.55 4.07544C1885.47 5.99603 1872.01 10.366 1861.41 21.624C1854.43 29.0388 1850.5 38.0185 1845.71 47.0842C1837.56 62.471 1827.26 76.5848 1814.58 87.5546C1795.81 103.788 1773.92 111.574 1752.46 118.16C1731.47 124.601 1709.62 134.735 1688.75 132.323C1648.32 127.657 1617.25 97.0069 1577.03 91.346C1559.58 88.89 1541.4 92.2228 1524.48 102.946C1498.05 119.703 1480.1 150.115 1454.79 169.327C1432 186.618 1406.98 196.584 1381.56 202.706C1357.74 208.441 1333.64 210.941 1309.97 218.928C1279.12 229.344 1255.95 254.214 1229.21 275.329C1200.89 297.702 1171.53 318.314 1144.83 343.59C1119.44 367.622 1098.61 397.011 1075.44 423.709C1056.79 445.181 1037.25 466.35 1015.64 483.663C995.353 499.914 969.646 515.127 948.743 502.094C932.658 492.072 923.538 471.909 912.553 455.984C901.567 440.06 887.894 425.809 868.467 423.735C843.762 421.098 815.976 426.803 790.806 433.482C761.741 441.192 732.932 452.9 705.263 468.204C676.864 483.901 650.395 503.657 625.065 526.088C599.532 548.712 575.029 573.085 548.487 594.004C519.581 616.795 488.183 634.926 455.044 641.435C420.767 648.172 387.504 643.097 355.74 635.111C326.177 627.678 297.468 617.535 267.452 611.516C237.435 605.496 205.269 603.409 173.144 607.135C118.14 613.519 61.7346 639.33 19.1192 687.701C0.256042 709.108 -14.6256 734.117 -24.3691 761.543C-25.1902 763.849 -22.1052 764.397 -21.2874 762.103L-21.3182 762.097Z" fill="#007AFF"/>
<path d="M6.51792 775.45C29.7044 712.319 81.2559 664.971 135.895 641.857C200.177 614.664 265.988 618.545 326.849 632.281C381.33 644.577 437.151 661.208 496.284 642.761C555.417 624.313 603.046 577.416 653.572 538.297C708.388 495.865 769.318 467.066 831.364 454.89C863.998 448.494 896.771 442.711 921.681 464.53C948.086 487.644 966.536 528.073 1009.1 508.915C1044.4 493.028 1075.38 456.239 1101.66 425.054C1125.23 397.084 1146.6 367.438 1172.84 342.562C1199.07 317.685 1228.71 295.156 1256.54 271.274C1268.59 260.931 1280.08 249.028 1293.07 240.48C1307.49 230.99 1323.06 225.572 1338.58 221.589C1360.94 215.858 1383.41 212.462 1405.73 205.738C1429.65 198.526 1452.92 187.23 1474.01 170.153C1496.87 151.659 1514.48 124.743 1540.91 113.524C1584.73 94.9259 1624.05 124.045 1660.98 138.036C1676.69 143.987 1693.62 148.522 1711.36 145.544C1730.96 142.252 1751.69 134.793 1771.13 128.338C1791.25 121.649 1810.99 112.039 1827.71 95.5636C1836.31 87.0875 1843.79 77.2054 1850.23 66.5981C1856.68 55.9787 1861.95 46.0918 1871.65 38.7366C1886.42 27.5324 1904.04 25.684 1920.1 24.0498C1938.18 22.2085 1956.3 21.0265 1974.37 15.2823C2023.73 -0.426686 2048.67 -49.4527 2079.96 -93.1826C2112.68 -138.914 2153.4 -176.426 2196.24 -208.297C2285.36 -274.599 2383.02 -318.386 2476.81 -371.611C2497.71 -383.465 2518.44 -395.837 2538.82 -409.128C2540.74 -410.378 2539.24 -413.361 2537.34 -412.109C2446.45 -352.882 2349.73 -311.035 2258.03 -254.079C2213.8 -226.616 2170.43 -195.699 2131.52 -157.716C2112.13 -138.785 2093.94 -118.086 2077.78 -95.522C2059.8 -70.3872 2044.74 -42.469 2023.71 -20.1381C1988.57 17.1868 1948.32 15.6624 1907.22 21.9389C1892.75 24.1439 1877.59 28.293 1865.27 39.891C1859.77 45.0563 1855.55 51.1941 1851.66 57.8795C1843.02 72.7169 1833.64 86.256 1821.15 97.2997C1802.61 113.714 1780.96 121.928 1759.55 128.266C1737.86 134.683 1714.42 144.54 1692.92 142.384C1652.82 138.355 1621.16 109.746 1581.3 104.675C1564.11 102.497 1546.21 105.572 1529.39 115.611C1503.82 130.875 1485.39 158.985 1460.5 176.164C1413.63 208.516 1363.67 205.944 1314.78 225.461C1286.92 236.588 1264.83 260.298 1240.73 280.358C1213.83 302.758 1186.26 324.246 1161.13 349.539C1117.87 393.037 1084.66 448.169 1037.32 486.652C1017.15 503.051 992.462 517.478 970.882 506.815C954.923 498.939 944.293 482.21 931.932 469.258C918.576 455.269 902.955 445.165 883.081 445.248C826.133 445.485 764.533 466.068 710.293 496.352C656.053 526.637 609.132 575.12 556.047 609.707C525.539 629.586 493.426 643.098 460.229 646.438C428.715 649.61 398.267 644.561 368.627 638.06C310.032 625.196 252.982 611.026 189.907 622.299C137.762 631.607 85.0825 658.07 45.1371 704.189C27.238 724.851 13.0423 748.744 3.43292 774.902C2.59131 777.205 5.67953 777.74 6.51464 775.462L6.51792 775.45Z" fill="#007AFF"/>
<path d="M34.3558 788.791C56.8637 729.488 104.253 684.414 155.298 659.956C217.042 630.371 282.666 629.269 342.941 638.909C398.372 647.77 454.211 662.806 513.158 646.908C567.659 632.21 615.965 593.698 664.67 559.619C718.44 521.985 775.295 495.258 834.52 481.06C868.992 472.786 908.655 462.744 938.757 479.969C954.274 488.852 966.645 502.854 982.236 511.583C998.098 520.465 1015.78 520.073 1033.95 510.767C1067.94 493.349 1097.29 458.374 1122.8 427.407C1146.03 399.21 1167.32 369.689 1192.9 344.118C1218.48 318.547 1245.22 296.297 1271.57 272.707C1283.04 262.425 1294.01 251.261 1306.73 243.277C1320.89 234.379 1336.08 229.123 1351.2 225.067C1373.06 219.206 1395.05 215.287 1416.85 208.571C1439.65 201.54 1462.01 191.139 1482.52 175.646C1505.88 157.998 1524.33 132.87 1551.53 124.489C1593.9 111.423 1631.32 137.6 1667.94 149.781C1684.81 155.394 1702.8 158.804 1721.52 154.291C1741.53 149.462 1762.02 144.402 1781.84 137.44C1801.97 130.369 1821.39 119.551 1837.62 102.424C1853.86 85.2958 1862.6 63.8268 1882.69 53.2823C1915.8 35.9106 1952.21 42.0183 1986.11 27.9102C2033.47 8.20523 2059.37 -42.3599 2092.48 -83.585C2125.58 -124.81 2165.98 -160.833 2207.5 -191.37C2295.81 -256.321 2391.74 -301.422 2485.1 -351.923C2505.64 -363.038 2526.09 -374.45 2546.34 -386.461C2548.29 -387.616 2546.79 -390.587 2544.85 -389.442C2454.01 -335.591 2359.59 -293.224 2269.47 -237.118C2224.68 -209.233 2180.75 -178.009 2140.81 -140.329C2122.98 -123.505 2105.96 -105.432 2090.31 -85.9103C2070.94 -61.7564 2054.55 -35.0265 2034.3 -11.6973C2000.34 27.4275 1960.07 32.27 1918.13 39.1991C1903.98 41.5371 1889.21 44.7103 1875.97 53.3403C1857.81 65.1552 1848.58 87.1114 1833.03 102.599C1814.52 121.039 1792.29 130.926 1769.92 137.614C1748.99 143.874 1725.14 152.723 1704.21 152.768C1663.13 152.847 1630 125.184 1590.66 118.75C1572.82 115.827 1553.98 117.708 1536.02 127.285C1512.26 139.96 1494.3 164.206 1471.55 179.407C1425.39 210.252 1376 209.918 1327.92 228.905C1300.44 239.755 1279.15 261.809 1255.86 282.346C1231.59 303.743 1207.06 324.835 1184.24 348.4C1141.65 392.364 1108.62 447.172 1062.44 486.825C1042.29 504.135 1017.88 519.802 994.735 512.897C977.754 507.84 965.029 493.71 950.901 483.417C931.49 469.274 911.842 465.689 887.139 468.283C830.384 474.247 772.246 492.722 718.13 522.057C663.387 551.725 614.63 596.921 559.358 625.022C498.597 655.925 440.318 652.237 381.393 641.819C323.981 631.664 266.69 623.512 205.813 638.408C156.556 650.453 107.431 677.6 70.2321 721.827C53.717 741.462 40.5406 763.839 31.281 788.245C30.4119 790.53 33.5001 791.065 34.3628 788.805L34.3558 788.791Z" fill="#007AFF"/>
<path d="M62.0117 802.611C112.951 672.805 250.007 638.11 351.332 645.774C406.057 649.903 459.643 662.97 516.343 653.544C570.483 644.548 620.914 612.995 670.562 582.362C724.815 548.883 779.77 522.974 837.965 507.592C865.458 500.325 893.536 494.533 921.04 492.461C932.354 491.602 943.316 492.942 953.713 496.239C971.175 501.792 986.069 512.966 1003.21 519.202C1020.18 525.383 1038.01 523.79 1056 514.104C1089.85 495.883 1118.74 460.989 1144.02 429.546C1164.56 403.994 1183.54 377.16 1205.52 353.096C1229.1 327.291 1254.37 303.749 1279.65 280.311C1290.07 270.645 1300.28 260.107 1311.57 251.916C1323.65 243.164 1336.75 237.194 1349.97 232.666C1373.42 224.651 1397.24 220.362 1420.79 213.518C1442.83 207.126 1464.64 198.468 1485.16 185.19C1508.74 169.934 1528.01 146.35 1554.15 138.211C1596.74 124.942 1634.76 149.259 1672.16 160.482C1688.71 165.448 1706.29 168.503 1724.45 164.642C1745.37 160.196 1766.81 155.512 1787.54 148.397C1806.54 141.876 1824.94 132.011 1840.86 116.769C1857.91 100.43 1868.47 80.8646 1889.5 71.0546C1923.34 55.2977 1959.17 57.8087 1993.21 41.9493C2038.25 20.9642 2065.68 -26.804 2099.06 -65.8166C2134.42 -107.155 2174.86 -142.275 2216.99 -173.124C2303.85 -236.714 2397.55 -282.987 2489.95 -330.415C2511.15 -341.294 2532.33 -352.266 2553.41 -363.563C2555.39 -364.611 2554.7 -368.075 2552.71 -367.004C2462.56 -318.68 2370.64 -276.061 2282.52 -221.191C2238.68 -193.89 2195.7 -163.591 2155.82 -127.998C2136.91 -111.114 2118.71 -93.0519 2101.66 -73.6302C2082.19 -51.4507 2065.22 -26.8356 2045.91 -4.48649C2028.55 15.6202 2010 31.2913 1987.35 40.8062C1968.46 48.7412 1949.12 52.1059 1929.89 55.8757C1914.09 58.9756 1897.77 62.3003 1882.64 70.779C1866.22 79.982 1857.08 95.2137 1843.84 109.267C1824.85 129.435 1801.67 140.735 1778.04 147.783C1756.74 154.142 1732.84 161.716 1711.5 162.684C1670.56 164.527 1636.47 139.121 1597.69 132.493C1580.18 129.501 1561.63 130.453 1543.64 138.552C1520.57 148.938 1502.32 170.686 1480.42 184.303C1434.4 212.909 1385.1 213.782 1337.69 233.631C1312.3 244.261 1292.59 263.928 1271.33 283.683C1248.11 305.258 1225 327.082 1203.33 350.793C1163.4 394.497 1131.41 446.846 1087.93 486.44C1067.43 505.106 1042.99 522.163 1018.19 519.099C1000.14 516.879 985.168 505.781 969.177 498.347C945.688 487.414 922.673 487.885 895.815 491.929C840.512 500.241 784.406 517.397 731.15 543.921C677.371 570.709 627.397 609.736 572.617 633.016C512.866 658.411 455.629 654.209 397.706 647.055C299.548 634.915 181.732 638.13 98.7425 735.432C82.2073 754.82 68.7646 776.944 59.2735 801.128C58.3903 803.385 61.0949 804.913 61.9814 802.644L62.0117 802.611Z" fill="#007AFF"/>
<path d="M89.8488 815.953C139.067 694.722 265.5 655.602 363.488 654.756C417.026 654.296 469.063 664.088 523.328 658.133C577.592 652.177 629.282 626.877 680.599 600.116C732.617 572.983 784.421 549.878 838.719 534.849C865.904 527.321 893.205 521.375 920.489 517.025C936.116 514.533 951.418 512.416 966.604 514.154C985.917 516.373 1003.47 524.04 1022.36 527.64C1041.25 531.24 1060.14 528.101 1078.86 517.181C1111 498.429 1138.22 465.791 1162.39 435.221C1182.36 409.973 1200.71 383.294 1221.43 358.784C1241.15 335.448 1262.05 313.439 1283.55 292.32C1306.18 270.1 1327.19 249.954 1354.91 238.918C1378.74 229.438 1403.24 224.529 1427.35 217.672C1449.39 211.408 1471.31 203.615 1492.23 191.495C1514.1 178.819 1533.03 159.215 1556.54 151.878C1599.37 138.536 1638.28 160.942 1676.46 171.145C1713.59 181.066 1754.62 172.5 1793.72 159.402C1813.69 152.712 1833.03 142.351 1849.76 126.4C1857.4 119.106 1863.92 110.367 1871.98 103.698C1879.9 97.158 1888.6 92.3184 1897.49 88.5769C1932.27 73.9757 1968.39 72.9213 2002.7 54.6286C2046.34 31.3447 2075.92 -16.007 2110.68 -53.3623C2146.95 -92.3482 2187.09 -126.207 2228.7 -156.409C2314.54 -218.751 2406.54 -266.037 2498.33 -310.712C2519.16 -320.851 2540.05 -330.867 2560.92 -340.909C2562.93 -341.875 2562.23 -345.326 2560.22 -344.35C2470.68 -301.248 2380.76 -258.47 2294.42 -204.544C2250.91 -177.373 2208.33 -147.348 2168.24 -112.893C2149.37 -96.6789 2131.08 -79.4651 2113.64 -61.1368C2094.42 -40.9207 2077.37 -18.4807 2058.7 2.33433C2040.06 23.1164 2021.53 41.516 1997.96 53.2556C1979.51 62.4471 1960.36 67.4202 1941.31 72.0396C1924.91 76.0153 1908.23 79.6713 1892.25 87.1509C1875.4 95.0344 1864.22 107.493 1850.51 121.23C1830.2 141.58 1805.81 152.826 1781.1 159.563C1760.2 165.253 1737.42 171.496 1716.53 172.585C1675.78 174.716 1640.95 151.759 1602.18 145.722C1584.31 142.934 1565.42 143.861 1547.07 151.676C1523.33 161.787 1503.25 182.641 1479.81 194.391C1434.98 216.859 1387.34 218.812 1342.58 240.589C1320.08 251.539 1301.78 270.03 1283 288.409C1260.93 310.013 1239.48 332.522 1219.26 356.446C1182.02 400.524 1150.92 451.154 1109 489.996C1088.64 508.855 1065.25 524.938 1040.31 525.558C1020.87 526.039 1003.28 518.121 985.1 513.705C955.14 506.43 924.388 512.03 892.698 518.355C839.985 528.863 786.983 544.845 735.809 568.537C684.635 592.23 632.475 624.926 578.466 642.54C521.27 661.199 465.69 656.198 410.068 652.686C315.76 646.732 203.616 659.636 126.085 750.423C109.906 769.364 96.6848 790.901 87.1306 814.435C86.2166 816.686 88.9212 818.214 89.8385 815.951L89.8488 815.953Z" fill="#007AFF"/>
<path d="M117.689 829.293C165.777 714.827 284.006 672.912 378.884 665.042C431.055 660.714 482.052 666.455 534.257 661.839C585.226 657.33 634.844 639.34 684.516 618.367C736.627 596.367 788.185 575.391 841.441 561.08C868.015 553.941 894.676 547.891 921.344 542.7C940.24 539.024 959.361 534.865 978.164 534.076C1019.18 532.35 1057.45 547.12 1098.6 522.374C1130.43 503.234 1157.25 471.252 1181.11 440.496C1217.58 393.489 1250.48 344.427 1291.05 301.541C1311.7 279.706 1332.37 258.524 1358.06 246.39C1380.65 235.712 1404.31 230 1427.47 223.595C1448.81 217.691 1470.19 211.411 1491.02 201.794C1513 191.646 1533.07 174.026 1555.53 166.433C1598.8 151.803 1638.89 171.508 1677.94 181.114C1715.58 190.373 1756.01 183.758 1795.71 171.995C1816.14 165.939 1836.3 156.43 1854.07 141.322C1870.61 127.256 1884.64 114.907 1903.87 107.02C1939.11 92.5553 1975.61 88.0254 2009.94 68.293C2051.84 44.2179 2082.92 -0.148445 2117.89 -35.6364C2155.6 -73.9012 2196.44 -107.799 2238.63 -138.354C2323.34 -199.701 2413.63 -248.064 2504.75 -290.022C2525.91 -299.769 2547.15 -309.145 2568.44 -318.269C2570.47 -319.14 2569.76 -322.581 2567.73 -321.709C2478.48 -283.466 2389.87 -240.451 2304.85 -186.987C2260.98 -159.396 2218.09 -128.993 2177.32 -94.7244C2158.54 -78.9424 2140.23 -62.3336 2122.56 -44.8155C2103.48 -25.9155 2086.05 -5.22072 2067.55 14.385C2048.11 34.9849 2028.72 54.3653 2005.01 67.1921C1986.92 76.9855 1968.05 83.1608 1949.2 88.7246C1931.73 93.8746 1914.06 98.4244 1896.96 106.263C1879.37 114.32 1866.54 126.76 1851.12 139.545C1830.21 156.871 1806.42 166.141 1782.58 171.847C1761.8 176.829 1739.5 182.073 1718.83 182.651C1677.21 183.795 1641.14 162.224 1600.7 158.261C1582.62 156.496 1563.77 158.416 1545.58 166.644C1536.4 170.795 1528.12 176.746 1519.45 182.368C1506.17 190.967 1492.31 197.898 1478.23 203.575C1434.37 221.268 1387.01 224.669 1344.6 249.697C1323.93 261.9 1306.07 281.035 1288.86 299.238C1269.05 320.204 1250.32 342.48 1232.47 365.618C1199.67 408.15 1170.55 454.422 1132.46 491.35C1111.03 512.125 1086.75 529.171 1060.09 532.996C1039.35 535.965 1019.4 531.84 999.229 530.667C964.481 528.647 928.614 537.141 893.359 544.838C842.328 555.986 791.406 570.516 741.304 590.72C689.319 611.682 637.778 637.15 584.631 650.086C530.991 663.138 478.302 659.57 425.609 659.647C334.403 659.782 226.798 679.483 153.376 765.455C137.574 783.952 124.557 804.926 114.957 827.786C114.012 830.032 116.717 831.559 117.665 829.302L117.689 829.293Z" fill="#007AFF"/>
<path d="M145.527 842.635C191.539 736.782 298.754 692.429 388.551 677.293C439.727 668.666 490.156 669.968 541.021 665.927C591.887 661.886 641.022 648.885 691.126 632.543C742.094 615.911 792.762 598.828 844.134 586.362C891.465 574.874 939.363 563.72 986.775 556.161C1031.27 549.07 1075.9 555.252 1118.79 527.801C1148.51 508.777 1173.75 479.681 1196.32 450.418C1230.88 405.607 1260.28 356.358 1296.92 313.447C1315.69 291.461 1335.94 269.117 1359.78 255.418C1380.45 243.535 1402.67 236.794 1424.36 230.492C1447.42 223.789 1470.6 217.963 1493.44 209.287C1516.91 200.369 1539.21 184.127 1563.04 178.088C1605.51 167.315 1644.62 184.068 1683.7 192.105C1721.93 199.976 1763.87 194.466 1803.9 182.993C1823.48 177.384 1842.81 168.76 1860.34 155.335C1876.88 142.687 1893 132.638 1911.35 125.192C1946.67 110.869 1982.98 102.737 2016.95 82.0041C2059.44 56.0818 2093.49 12.0104 2130.7 -23.1212C2168.24 -58.5635 2207.88 -90.8635 2248.72 -120.386C2332.2 -180.755 2420.78 -230.055 2511.09 -269.345C2532.59 -278.698 2554.21 -287.43 2575.92 -295.62C2577.97 -296.399 2577.26 -299.84 2575.21 -299.061C2485.84 -265.341 2397.91 -221.895 2313.76 -168.466C2270.66 -141.093 2228.56 -111.019 2188.12 -77.8684C2148.86 -45.6916 2113.03 -9.86051 2076.72 26.7129C2057.87 45.6924 2038.78 64.5782 2016.9 78.1463C1998 89.8773 1978 97.8938 1958 104.923C1939.95 111.26 1921.76 116.777 1903.95 124.55C1887.06 131.928 1872.7 142.081 1857.32 153.507C1836.62 168.901 1813.68 177.457 1790.73 182.697C1769.8 187.474 1747.99 191.31 1727.16 192.473C1684.3 194.861 1646.3 175.062 1604.69 171.514C1586.71 169.985 1568.05 171.529 1549.81 178.663C1539.1 182.853 1529.04 189.402 1518.58 194.598C1506.49 200.61 1494.13 205.538 1481.69 209.811C1438.01 224.828 1390.24 230.275 1349.12 258.124C1328.97 271.777 1311.13 291.86 1294.72 311.092C1276.6 332.34 1259.94 355.094 1243.73 378.158C1214.47 419.774 1186.53 463.038 1150.58 497.862C1128.87 518.904 1104.57 535.294 1077.91 542.061C1055.77 547.691 1033.64 547.582 1011.61 549.498C971.931 552.938 931.638 563.083 891.93 571.723C843.069 582.37 794.418 594.806 745.941 610.664C692.936 627.987 639.679 648.027 586.033 656.908C534.865 665.383 484.407 663.91 433.533 668.064C346.901 675.144 246.091 701.784 178.541 782.991C164.048 800.422 151.993 819.933 142.791 841.101C141.815 843.341 144.52 844.869 145.499 842.617L145.527 842.635Z" fill="#007AFF"/>
<path d="M173.365 855.975C218.662 755.338 319.642 709.929 406.198 689.51C455.494 677.881 504.551 674.765 553.67 669.882C603.739 664.916 653.305 654.896 703.375 642.871C752.443 631.086 801.442 619.122 850.591 609.372C899.539 599.649 948.467 590.486 997.374 579.349C1046.36 568.201 1096.57 564.488 1142.05 531.588C1213.78 479.699 1253.21 390.298 1308.25 319.747C1324.59 298.789 1342.87 277.929 1364.04 263.872C1385.2 249.815 1406.51 242.447 1428.26 235.608C1451.6 228.263 1475.09 222.648 1498.42 215.265C1521.58 207.939 1544.46 195.165 1567.79 190.48C1611.49 181.696 1651.98 196.985 1693 203.458C1734.02 209.93 1775.93 204.939 1816.5 193.219C1836.29 187.495 1854.13 178.088 1872.49 166.566C1889.73 155.747 1907.92 147.877 1926.09 140.642C1963.21 125.853 2000.93 112.81 2035.34 87.9629C2075.73 58.7933 2111.07 18.6799 2149.09 -14.7452C2186.88 -47.9684 2226.02 -78.9773 2266.21 -107.66C2347.44 -165.636 2433.18 -214.518 2521.39 -250.265C2541.95 -258.6 2562.64 -266.158 2583.43 -272.968C2585.49 -273.641 2584.76 -277.086 2582.72 -276.409C2409.08 -219.474 2240.31 -109.58 2097.03 28.891C2076.79 48.4607 2056.17 68.8702 2033.86 84.9711C2015.63 98.1412 1996.21 108.23 1976.51 116.799C1940.87 132.292 1903.76 142.682 1869.66 164.441C1826.87 191.755 1781.64 199.122 1736.23 202.274C1693.04 205.269 1653.76 188.753 1611.91 184.982C1593.48 183.32 1574.49 184.139 1555.58 189.936C1532.33 197.065 1509.65 208.392 1486.24 215.313C1443.7 227.889 1397.35 235.744 1358 264.054C1318.65 292.363 1289.41 338.869 1262.31 380.699C1235.4 422.242 1208.4 464.141 1174.41 498.99C1152 521.978 1126.87 540.404 1099.27 551.32C1074.67 561.045 1049.46 565.133 1024.51 570.011C981.824 578.364 939.163 588.462 896.455 596.761C846.782 606.416 797.193 616.521 747.573 628.513C698.127 640.459 648.491 653.765 598.938 660.872C548.892 668.054 499.106 669.708 449.036 677.5C365.238 690.543 268.956 721.114 204.667 799.473C191.041 816.077 179.601 834.536 170.636 854.456C169.63 856.69 172.338 858.205 173.344 855.971L173.365 855.975Z" fill="#007AFF"/>
<path d="M201.199 869.329C246.244 772.739 342.503 726.818 426.311 701.729C473.998 687.455 521.913 680.307 569.754 673.964C617.819 667.585 665.813 659.902 713.904 652.134C808.462 636.878 903.669 628.825 998.171 605.758C1054.5 592.005 1113.5 576.975 1163.92 536.659C1192.51 513.798 1217.26 484.74 1239.31 453.822C1269.29 411.775 1292.06 364.362 1322.29 322.616C1337.47 301.664 1354.88 281.95 1375.26 268.056C1395.37 254.345 1417.41 245.69 1439.11 238.587C1463.27 230.689 1487.65 225.132 1511.93 218.714C1534.28 212.815 1556.59 204.196 1579.05 201.936C1623.32 197.489 1664.64 210.717 1707.33 215.012C1746.55 218.957 1790.02 215.399 1830.25 203.94C1850.55 198.153 1869.34 187.922 1888.95 178.687C1907.28 170.06 1925.83 162.434 1944.31 154.475C1983.19 137.718 2021.84 118.885 2056.71 90.2714C2095.18 58.6938 2131.96 24.2128 2170.32 -7.58985C2207.52 -38.4395 2245.53 -67.8744 2284.44 -95.345C2361.3 -149.626 2442.03 -196.644 2525.66 -228.696C2547.14 -236.927 2568.8 -244.105 2590.54 -250.19C2592.58 -250.766 2592.74 -254.447 2590.66 -253.865C2421.63 -206.543 2262.93 -94.1781 2120.22 30.8906C2081.87 64.4987 2044.68 99.6198 2001.53 123.39C1963.48 144.341 1923.78 158.238 1885.14 176.714C1863.76 186.935 1843.49 197.265 1821.22 202.669C1799.3 207.982 1777.34 210.166 1755.52 211.635C1710.28 214.677 1668.9 203.767 1625.16 199.026C1605.51 196.899 1585.36 196.42 1565.03 200.308C1542.23 204.654 1519.32 213.24 1496.55 219.052C1455.58 229.509 1411.84 239.026 1373.78 265.065C1335.3 291.397 1308.61 335.538 1284.09 377.122C1258.78 420.07 1232.49 462.429 1199.41 498.696C1175.32 525.1 1148.12 546.999 1118.31 562.259C1091.02 576.238 1062.58 584.828 1034.31 592.581C943.081 617.625 851.92 627.142 760.568 641.126C711.847 648.588 663.071 657.587 614.368 664.336C565.675 671.087 516.931 676.179 468.204 687.131C387.297 705.316 295.44 738.315 233.195 813.056C219.425 829.595 207.768 847.938 198.508 867.791C197.474 870.008 200.179 871.535 201.216 869.307L201.199 869.329Z" fill="#007AFF"/>
<path d="M229.037 882.67C274.387 788.847 367.973 742.286 449.874 713.129C540.072 681.018 633.537 668.237 724.303 659.913C817.818 651.335 911.645 653.646 1005.69 630.918C1069.39 615.526 1133.89 588.681 1188.3 539.82C1216.97 514.083 1242.1 483.392 1264.13 450.308C1292.62 407.492 1312.05 358.219 1342.21 316.78C1372.42 275.272 1412.49 253.461 1455.16 239.81C1478.95 232.203 1502.96 227.219 1526.91 222.711C1548.97 218.561 1570.81 214.424 1592.69 214.168C1638.21 213.618 1681.66 224.011 1726.69 226.161C1766.59 228.067 1808.91 225.888 1849.53 214.268C1890.42 202.569 1932.25 182.984 1971.51 162.715C2012.57 141.519 2050.53 114.836 2087.99 84.8005C2230.28 -29.332 2372.8 -152.043 2536.25 -209.486C2556.72 -216.686 2577.33 -222.672 2598.02 -227.504C2600.08 -227.987 2600.23 -231.668 2598.14 -231.178C2435.12 -193.122 2285.64 -80.6809 2146.12 32.9841C2108.98 63.2314 2072.45 95.494 2033.49 122.109C1993.54 149.389 1951.23 170.14 1908.54 188.112C1886.57 197.355 1864.42 206.961 1841.96 212.661C1819.5 218.361 1797.52 220.774 1775.48 221.971C1729.48 224.454 1685.9 218.017 1641.2 213.216C1621.02 211.055 1600.59 209.657 1579.85 210.951C1557.32 212.355 1534.39 217.444 1511.77 221.991C1470.94 230.196 1428.14 240.91 1390.04 265.789C1352.46 290.328 1327.81 330.134 1305.87 371.431C1282.64 415.141 1258.46 457.488 1227.04 494.991C1101.41 644.955 922.763 642.073 769.313 652.711C678.573 659.005 585.516 669.534 494.56 695.253C414.053 718.026 322.55 753.851 260.501 828.142C247.07 844.218 235.618 861.998 226.34 881.195C225.275 883.406 227.983 884.921 229.048 882.71L229.037 882.67Z" fill="#007AFF"/>
<path d="M256.874 896.013C302.454 804.994 393.391 757.747 473.157 724.647C562.822 687.439 655.281 667.862 745.996 665.975C834.457 664.139 922.278 676.139 1012.25 656.303C1087.96 639.615 1160.74 597.188 1220.96 534.447C1250.47 503.696 1276.61 468.496 1297.94 430.297C1322.61 386.108 1338.39 334.19 1373.29 297.487C1407.92 261.067 1454.74 243.17 1497.51 234.269C1539.62 225.503 1581.5 225.596 1622.6 228.016C1701.8 232.694 1781.27 246.897 1863.08 227.866C1947.21 208.298 2025.05 152.722 2098.87 97.1597C2241.5 -10.1719 2383.33 -137.599 2545.26 -189.59C2565.25 -196.007 2585.37 -201.072 2605.52 -204.864C2607.6 -205.254 2607.73 -208.938 2605.64 -208.538C2443.43 -177.996 2297.94 -60.6586 2158.31 47.5118C2082.71 106.077 2005.34 169.051 1921.14 204.965C1835.02 241.705 1750.28 234.498 1666.16 227.518C1588.63 221.086 1506.07 215.412 1427.46 254.478C1386.94 274.621 1356.59 306.243 1333.98 350.23C1322.29 372.967 1312.42 396.61 1300.45 419.193C1289.44 439.944 1277.02 459.861 1263.37 478.698C1209.49 553.105 1136.87 610.932 1059.09 639.137C968.211 672.097 876.867 663.523 787.573 662.228C698.376 660.938 608.745 672.55 519.031 703.496C475.531 718.506 432.047 737.125 390.451 760.806C354.442 781.321 319.16 806.611 290.229 840.255C276.146 856.635 264.043 874.795 254.18 894.487C253.077 896.678 255.795 898.195 256.888 896.002L256.874 896.013Z" fill="#007AFF"/>
</g>
</g>
</g>
<defs>
<radialGradient id="paint0_radial_75_71" cx="0" cy="0" r="1" gradientUnits="userSpaceOnUse" gradientTransform="translate(168 107.108) rotate(21.6458) scale(527.714 486.492)">
<stop stop-color="#032E68"/>
<stop offset="1" stop-color="#000C1C"/>
</radialGradient>
<radialGradient id="paint1_radial_75_71" cx="0" cy="0" r="1" gradientUnits="userSpaceOnUse" gradientTransform="translate(1547.5 196.52) rotate(-11.527) scale(505.7 562.787)">
<stop stop-color="#0661C0"/>
<stop offset="1" stop-color="#000C1C"/>
</radialGradient>
</defs>
</svg>
